<svg xmlns="http://www.w3.org/2000/svg" xmlns:xlink="http://www.w3.org/1999/xlink" viewBox="0 0 300 300"><defs><filter id="luminosity-noclip" x="3.97" y="-8342" width="292.03" height="32766" filterUnits="userSpaceOnUse" color-interpolation-filters="sRGB"><feFlood flood-color="#fff" result="bg"/><feBlend in="SourceGraphic" in2="bg"/></filter><mask id="mask" x="3.97" y="-8342" width="292.03" height="32766" maskUnits="userSpaceOnUse"><g filter="url(#luminosity-noclip)"/></mask><radialGradient id="radial-gradient" cx="125.99" cy="126.82" r="157.84" gradientUnits="userSpaceOnUse"><stop offset="0"/><stop offset="1" stop-color="#fff"/></radialGradient><radialGradient id="radial-gradient-2" cx="199.18" cy="-58.36" r="219.87" gradientTransform="translate(77.77 285.6) rotate(-64.84)" gradientUnits="userSpaceOnUse"><stop offset="0.24" stop-color="#8c9bcd"/><stop offset="0.49" stop-color="#7f8dc4"/><stop offset="0.74" stop-color="#5864a7"/><stop offset="1" stop-color="#363b64"/></radialGradient><linearGradient id="linear-gradient" x1="211.17" y1="-7.98" x2="272.56" y2="-7.98" gradientTransform="translate(77.77 285.6) rotate(-64.84)" gradientUnits="userSpaceOnUse"><stop offset="0.02" stop-color="#c1dff0"/><stop offset="0.52" stop-color="#f5f5f5"/><stop offset="1" stop-color="#c1dff0"/></linearGradient><linearGradient id="linear-gradient-2" x1="14.98" y1="21.92" x2="80.41" y2="21.92" xlink:href="#linear-gradient"/><linearGradient id="linear-gradient-3" x1="84.79" y1="47.79" x2="89.25" y2="47.79" xlink:href="#linear-gradient"/><linearGradient id="linear-gradient-4" x1="104.11" y1="55.81" x2="111.99" y2="55.81" xlink:href="#linear-gradient"/><linearGradient id="linear-gradient-5" x1="96.08" y1="53.52" x2="101.61" y2="53.52" xlink:href="#linear-gradient"/><linearGradient id="linear-gradient-6" x1="63.61" y1="60.46" x2="239.05" y2="60.46" xlink:href="#linear-gradient"/><filter id="luminosity-noclip-2" x="3.97" y="4.09" width="292.03" height="292.07" filterUnits="userSpaceOnUse" color-interpolation-filters="sRGB"><feFlood flood-color="#fff" result="bg"/><feBlend in="SourceGraphic" in2="bg"/></filter><mask id="mask-2" x="3.97" y="4.09" width="292.03" height="292.07" maskUnits="userSpaceOnUse"><g mask="url(#mask)" filter="url(#luminosity-noclip-2)"><path d="M296,150.14a146,146,0,1,1-146-146A146,146,0,0,1,296,150.14Z" fill="url(#radial-gradient)" style="mix-blend-mode:multiply"/></g></mask><radialGradient id="radial-gradient-3" cx="125.99" cy="126.82" r="157.84" gradientUnits="userSpaceOnUse"><stop offset="0" stop-color="#222221"/><stop offset="1"/></radialGradient></defs><g style="isolation:isolate"><g id="Layer_1" data-name="Layer 1"><path d="M212,18.1a145.95,145.95,0,1,1-194.14,70A145.83,145.83,0,0,1,212,18.1Z" fill="url(#radial-gradient-2)"/><g opacity="0.7"><path d="M130.88,28c-.5,0-1.07-.77-1.73-1.08-1.38.76-1.9,2.2-3.32,2.56a15.92,15.92,0,0,1-4.6.69c-3.54.48-5.51,2.56-8.29,4.74-2.58,1.81-5.31,3.13-7.64,5.33-4.26,3.66.85,4.18,4,2.7,1.89-1.05,3.26-2.65,4.84-3.78,2.14-1.72,4.11-3,6.09-4.73,3.19-2.89,8.28-2.49,10.3-6.75Z" fill="#abb8de"/><path d="M112.27,31c1.13-.92,1.92-.6,3.16-1.16,1.19-.4,1.88-1.33,2.95-2.17,1.29-.72,6.56-2.7,6.46-4.5-.46-2.29-5.6,1.56-6.65,2.13-1.91,1.29-4.3,2.41-5.77,4.14-.4,0-.26.07-.65.19Z" fill="#abb8de"/><path d="M130.26,35.62c-.61,1.24-2.65,1.84-2.75,3.09.91-.53,1.8-.37,2.77-.65.92-.48,1.76-1.45,2.67-1.84A43.52,43.52,0,0,0,138,32.68a3,3,0,0,0,1.47,1.49c.31-.65.66-1.37,1-2,1.18.07,1.79-1.36,2.62-2.13a.93.93,0,0,0-1.07-.64c-1.91,1.31-3.74,1.12-5.41,2.77-1.73,1.44-3.79,1.77-5.69,3Z" fill="#abb8de"/><path d="M162.17,55a4.56,4.56,0,0,1-1.37,1c-2.59.84-4.54,2.72-6.71,4.49s-4.84,2.61-7.22,4.17c1-2,1.68-2.28,3.51-3.09a9.31,9.31,0,0,0,3.9-2.7c2.3-1.88,4.24-5.4,7.76-4.45Z" fill="#8b98cb"/><path d="M145.13,142.91c2.19-.4,4.18-2.72,5.65-4.49,1.84-2.37,4.1-3.06,6.66-4.34,2.26-1.16,4.42-3.34,6.35-5,5.9-4.33,12.64-6.51,17.55-12.08,3.94-4.39,8-9.49,13.45-11.66,4.7-1.77,8.76-5.41,12.88-8.35a41.55,41.55,0,0,0,3.78-2.89c.54-.31.83-.81,1.31-.93.56-.36,1.48-.19,1.79-.43,1.87-1.1,1.73-3.59,2.46-5.47h0c1.27-1.08,2.92-2.25,4.22-3.16,2.32-1.53,4.43-.33,6.76-1.53,2.81-1.61,5.71-3.49,8.43-5.23,2.25-1.44,5.38-4.86,5.64-7.87.66-3.37-2.52-3.28-4.85-2.49-3,.88-3.82,2.58-5.82,4.73-1.62,1.61-3.4,3.31-5,5a14.87,14.87,0,0,1-2.66,2.66,14.05,14.05,0,0,0-2.61,1.43A21.12,21.12,0,0,1,219,83.39a13.19,13.19,0,0,1-2.22,1.45,8,8,0,0,0-2.14-.16,11.66,11.66,0,0,1-1.56.09c-.66-.21-1.11-1-1.73-.88-2.67-.77-3.76,2.64-5.82,3.08s-4.93,0-6.85,1.17c-1.16.68-1.54,1.84-2.55,2.73s-2.5,1.93-3.65,2.94-2.46,2.24-3.76,3.32a44.82,44.82,0,0,0-3.71,3.62c-1.85,1.24-4.07,2.24-5.92,3.94a39.86,39.86,0,0,1-4.88,4c-3.46,2.15-6.41,4.94-9.63,7.36-2.07,1.64-4.58,2.94-5.44,5.46,1.28,2.24,4.65-.72,5.83-1.61.91-.72,1.71-1.53,2.71-2.21.21,0,1.1-.71,1.34-.71.74.31.35,1.11-.24,1.56-.24.48-1.33.48-2,1-.6.28-.89,1-1.46,1.4a18.13,18.13,0,0,1-3,1.94c-3,2.2-5,5.5-7.83,7.86-3.06,2.66-7,4.09-9.94,6.67l-.2.41c-1.08,1-2.13,4.33-.73,5-1,.32-1.85,1.55-2.74,2a13.39,13.39,0,0,1-3.75,2.13c-3,1.56-5.32,3.53-8.11,5.22-3.39,2.13-6.87,4.42-10.36,6.34a85.47,85.47,0,0,0-10.36,6.76c-2.39,2.2-6.21,4.13-7.22,7.3.88.8,1.87.4,2.66.11-.88,2.89-5.58,3-7.88,4.88-2.14,1.91-3.37,4.69-5.88,6.58-1.51,1.07-3.37,2-5,3.08a53.61,53.61,0,0,0-4.73,4c-1,1-2.38,1.67-3.62,2.8-3.66,3.3,5.2,3.86,2.15,7a33.82,33.82,0,0,0-3.19,2.8,35.65,35.65,0,0,1-4.93,2.94c-3,1.24-4.56,3.89-6.88,6-2.61,2.53-5.14,6.5-8.51,8.19-3,1.49-5.52,2.06-8,4.74a11,11,0,0,0-2,2.85c-.3,2.1,1.11.85,1,3l-.43.24c-1.4,1-2.33,1.2-3.09,3.08-.6,2.06-.28,3.26,2,2.9,3.36-.44,6.6-2.72,9.13-4.61a33.38,33.38,0,0,1,7.81-5.36,30.21,30.21,0,0,0,9-5.81c1.45-1.29,2.83-2.73,1.85-4.59s-3.39-2-4.17-3.68c1.47-.57.61-1.48.89-2.22a4.24,4.24,0,0,1,1.59-1.77,11.63,11.63,0,0,1,3.86-2.56c2.09-.6,2-1.08,3.62-2.25a6.23,6.23,0,0,1,2.49-1.12,10.1,10.1,0,0,0,3.55-1.94c3-2.29,5.3-4.78,8.27-6.82,2.58-1.65,5.71-2.65,7.75-4.89,2.91-3.06,5.24-5.79,9-8,3.11-2,6-5,8.54-7.5,4.65-4.86,9.88-9.69,15.88-12.8,3.93-2.3,8.24-3.78,12-6.68,2.55-1.88,4.61-4.3,7.16-6.06,1-.81,6.19-4.54,5-6.1-.85-1.49-5,2.33-6.11,3.16-1.57,1.45-2.41,3.63-5,3.47,0-.53-.3-1.22-.3-1.65-2.9,0-6.31,4.57-6,0,.13-2.93,2.35-2.77,4.34-4.87Z" fill="#9aa8d5"/><path d="M200.67,77.77c.4-.4.9-.4,1.19-.84a5.09,5.09,0,0,0,1-1.31,7.77,7.77,0,0,1,2-1.58c1.82-1.32,3.24-3.06,5-4.37,1.45-1.09,3.27-1.78,4.62-2.66a6.43,6.43,0,0,1,3.17-1.81c1.06-.24,1.24,0,.78,1-1,2.2-3.28,2.93-5.13,3.61a13.4,13.4,0,0,0-5.19,4.1c-1.1,1.33-2.94,1.45-4.11,2.77-.62.52-2.36,3.53-3.56,2.13-.38-.24-.07-.77-.22-1.09Z" fill="#919fd0"/><path d="M210.69,60.82c-1.56.77-2.83,2.46-3.89,3.87,1.33.51,3.31-1.53,4.24-2.22,1.51-1,3.14-2.25,4.79-3.13,1.22-.65,3.51-1.15,3.85-2.61,0-.55-.11-2.32-.69-2.37-.77-.43-1.49,1.08-1.83,1.77-.8,1.32-1.89,1.41-3.36,2.06-1,.62-1.63,1.72-2.72,2.08.09.12.21.16.14.28Z" fill="#828fc5"/><path d="M270.21,68a38.36,38.36,0,0,0-2.49,3.25c-.88,1.62-1.64,1.93-2.78,3.06-2.14,2-2.68,6.12-5.54,7.39-1.37.69-2.87.45-4.41,1.21a18.14,18.14,0,0,0-4.9,3.52c-1.62,1.82-5.16,6.67-8,5.67,0-.2.19-.32.28-.48-2.59-3.13-10.86,6.19-8.92,7.67-.33,1.49-2.65,2.32-3.88,2.94-1.59,1-3.07,2-4.58,2.92a30.05,30.05,0,0,0-4.44,2.77,15.11,15.11,0,0,1-3.66,2.94,43.21,43.21,0,0,1-8.68,2.73c-4,.77-4,3.66-6.68,5.58-.76.72-2,.37-2.25,1.8l-1.12.82c-2.39,1.71-3.43,4.2-5.22,6.22,1.07-.89,2.74-.93,3.91-1.89.08,1-.49,1.84-.27,2.77.77-.88,1.83-1.57,2.91-.88-.25.59-.14,1.21-.55,1.72.58,0,1.65-1,1.88-1,1.24,0,.27.26.93,1.07.34.48.26,2.89,1.71.72.76,1,.09,2.65-.09,3.82,1.74,1.68,6-3.3,7.77-4.18,3.63-2.25,7.33-4.33,11.22-6.38a35.47,35.47,0,0,0,5-3.58c1.64-1.25,3.35-1.93,4.92-3,1.15-.53,3-2.41,3.16-3.8.34-2.66-1.8-1.38-3.16-.29a10.82,10.82,0,0,0-2.5,2.08,6.56,6.56,0,0,1-1.88.45c1.22-.6,1.75-2.29,3-3.25,1-.81,2.13-.77,3.29-1.17,3.5-1.53,7.56-3.13,10.62-5.42,3.14-2,5.67-5.14,8.72-7.32,1.52-1.32,3.23-2.24,4.71-3.61a11.1,11.1,0,0,1,1.16-1.08,2.25,2.25,0,0,0,1.13.36c1.1,0,5-3.21,6.22-4.09,1.52-1,4.7-4.42,4.64-6l-1.18-.93a24,24,0,0,0-3.76,1.76c-1.17,1.29-1.76,2.66-3.11,3.62-.19.12-.26.21-.47.59a2.26,2.26,0,0,0-.92-2.36c-.16-.16-.35-.2-.51-.41-1.58.57-2.1,2.3-3,3.51a16.5,16.5,0,0,1-3.72,3.4c-3.39,2.49-7.62,4.5-10.77,7.24-2.78,2.44-6,4.13-8.72,6.43-2.43,1.87-4.65,3.93-7.52,5.41-.9.33-3.18,2.65-3.79,2.74-2.4,0,.26-2.94,1-3.46,2.9-1.89,6-2.89,8.73-4.86,2.76-2.13,4.51-5.23,7.2-7.36s4.94-3.8,7.41-5.78c3.41-2.76,7.57-3.85,10.08-7.75a33.46,33.46,0,0,1,4-4.33c1.55-1.45,2.3-4.42,4.22-1.33.48-.88,1.59-2.37,1.66-3.38.13-1.48-.77-1.91-.16-3.28C268.46,72.51,273.53,69,270.21,68Z" fill="#94a0cf"/><path d="M88.68,239.18c-2.19,1.92-4.82,3.8-7.09,5.7-2.08,2-5.36,4.33-7.08,6.38,2.36.08,3.44-1.6,5-3a46.76,46.76,0,0,1,4.25-2.57,14.66,14.66,0,0,0,3.93-3.06c.49-.48,1.06-1.31,1.58-1.72s1-1.36,1.22-.69Z" fill="#5560a5"/><path d="M257.48,159.7c2.24-2.44,4-5.81,6.56-8.32,1.35-1.15,3-1.89,4.33-2.85a10.31,10.31,0,0,1,1.74-2.12c.84-.61,1.9-.67,2.58-1.44,3.87.77-.68,3.93-1.47,4.73-2,1.94-3.05,4.91-5.11,7a19.88,19.88,0,0,1-9.85,5.15c.3-.56,1-1.92,1.06-2.13Z" fill="#7b8abc"/><path d="M285.21,136.69c1.68.92,6.15-6.67,6.81-8a35,35,0,0,0,1.79-3.13,93.53,93.53,0,0,0-2-9.75C289.26,122.06,284.26,136.18,285.21,136.69Z" fill="#7b8abc"/><path d="M37.52,236.29a10,10,0,0,0,2.64-4c.76-1.86.44-3.4-1.73-1.7-1.12.69-1.79,2.13-2.82,2.94-1.28,1-2.27,2-3.44,3,.67.8,1.39,1.76,2,2.53C35.36,238.09,36.33,237.21,37.52,236.29Z" fill="#9ba9d4"/><path d="M58,68.58a46.32,46.32,0,0,1-8.93,7c-3.5,2.17-5.49,4.49-8.34,7.31-1.61,1.53-6.23,5.17-7.61,2.64-1.86,2.82-5.62,5.3-8.28,7.24-2.11,1.6-6.34,4.45-7.72,6.86a31.8,31.8,0,0,0,1.81-3.77c-2.54-.44-5,4.58-6.2,6.23A15.16,15.16,0,0,0,11.52,104a152.74,152.74,0,0,0-5.21,20A22.32,22.32,0,0,1,9,119.51c3-3.87,5.54-7.84,8.56-11.69,1.22-1.65,2.09-5,3.44-6.19,2-1.72,3.77,0,6-1.2,3.9-2.46,5.89-7.48,9.53-9.92A7.44,7.44,0,0,0,37.6,89C41,92.92,51.9,80.54,54.36,78.46c2.81-2.13,4.5-4.9,6.91-7.43.92-1,2.31-2.29,2.78-3.66.64-1.92-.52-3.69,1.36-5.09C62.22,62.83,60.23,66.13,58,68.58Z" fill="#abb8de"/><path d="M65.41,62.28Z" fill="#abb8de"/><path d="M249.33,52.28c-2.26,1.51-4.93,2.73-6.83,4.81-.86.72-5.47,4.71-1.3,5.07a6.78,6.78,0,0,0,3.17-1c1.27-.57,1.82-2,2.79-2.65,1.72-1.2,3.55-2,5.18-3.25a6.64,6.64,0,0,1,2.3-1.73c.73-.23,1.59-.09,2.36-.35a8.82,8.82,0,0,0,1.63-.57c-1.33-1.44-2.62-2.85-4-4.21C253.28,49.82,250.74,51.11,249.33,52.28Z" fill="#7483ba"/><path d="M221.59,29c-1.86,1.92-3.94,3.49-5.85,5.22-3.66,3-6,.71-10,.31a12,12,0,0,1-8.54,5.06c-2,.21-2.84.89-4.55,1.89-4.61,2.61-9.33,5.06-13.87,7.51a40.13,40.13,0,0,0-5.59,4.49c-1.8,1.37-3.75,1.82-5.7,2.58-4.82,2.13-7.84,6.58-12.12,9.35-1.5,1-3.16,1.82-4.71,2.9s-2.07,2.41-4.23,1.72l-.95,1.17c-2.12,3.58-2.92,6.91-6.94,9.11-3.81,2.17-8.25,4.06-11.37,7.19-2.27,2.34-5.59,4.5-7.54,7.24-1,1.32-2.73,2.32-3.47,3.76s-1,.88.34,1.89,3.29.81,4.82,1c4.43.34,8.75-2.12,11.9-5.13,1.24-1.28,1.76-3.26,3.28-4.41a17.19,17.19,0,0,1,4.83-2.41c4.75-1.61,9.05-4.26,13.48-7,4.95-3,9-7.48,14.6-9.93,2.65-1.24,4.47-3.13,6.82-4.7,1.89-1.6,4-2.49,5.94-3.73,2.5-1.72,4.47-3.93,6.88-5.62,4.47-2.94,7.93-7.19,12-10.44,1.44-1.17,2.12-2.49,3.34-3.86A9.19,9.19,0,0,1,208.13,41c3-1.7,5.26-4,8.43-5.59,2.1-.93,4-2.45,6.05-3.5a17.1,17.1,0,0,1,5-2.05c1.18-.43,2.62-.72,2.94-1.48-1.88-1.2-3.75-2.44-5.84-3.57C223.57,26.13,222.73,27.7,221.59,29Z" fill="#9aa8d5"/><path d="M275.93,96.85c.92-1.61,3.12-4.66,2.17-6.63a5.66,5.66,0,0,0-5.06,2.7c-2.94,5.22-8.71,10.52-13.48,14.09-9.41,7.48-16,14.65-25.74,21.61-4.22,3-9.2,9.23-13.46,11.81a51.45,51.45,0,0,0-9,6.67c-2.89,2.6-6.16,5.25-9.22,7.7-5.15,4.22-11.55,6.1-16.86,9.72,3-3.41,6.2-6.91,7.94-11.13-2.55-.19-5.38,4.22-7.49,5.63a53.72,53.72,0,0,0-8.77,6.27c-2.58,2.36-4.73,4.73-7.65,6.69-1.57,1.06-2.67,1.73-3,3.55,0,1.76.3,1.55,1.41,2.08a.14.14,0,0,0,0,.16s.22-.12.31,0,.07,0,.34.12l1.55.28a2.5,2.5,0,0,1,.56,2.38c-.42,1.24-2.7,2.84-3.77,3.69-.79.8-1.67,1.49-2.37,2.21-.14-.08-.3.05-.36.05-1.78.14-3.52,2-5,2.84-1.7,1-3.61,1.53-5,2.85-1.45,1.53-2.39,3.29-3.94,4.58a37.39,37.39,0,0,1-4.65,2.56c-2.23,1.34-3.27,3.26-5.08,5-2.6,2.82-6.42,4.23-9.2,6.72-1.58,1.2-2.37,3.08-3.83,4.06-1.7,1.2-3.14.43-5.1.88-2,.63-3.12,2.68-4.89,4.09-1.41,1.05-2.56,1.6-3.64,3.06-2.33,3-5.11,6-8.5,7.62-3.15,1.61-8,2.92-9.61,6.79,2.27-.93,3.89-2.81,6.05-3.82s3.85-2.65,6-3.58c2.37-1.15,3.45-2.56,5.46-4a52.53,52.53,0,0,0,6.32-4.61c2.65-2.57,6.19-4.09,9.15-6.59,3.32-2.81,7.38-3.29,10.61-6.39,1.88-1.92,3.32-4.65,5.61-6.38,1.46-1,3.09-1.57,4.55-2.49,1.7-1.16,5.73-4.62,8.64-5.91a6.37,6.37,0,0,0-.43,1c-.46,1.41-.59,3.34-1.24,4.88-.93,1.8-3,2.79-4.61,4.2-1.93,1.73-4.1,3.21-5.94,4.7-4,3.29-7,6.9-11.17,9.89-4.52,2.77-9.6,4.49-14.06,7-2.84,1.7-5.7,3.37-8.51,5-1.42.61-2.2,1.61-3.42,2.86s-3.4,1.52-3.8,3.41c1.2-.17,3.57.65,3.15,2.36s-3,1.93-4.3,2.45c-4.38,2.25-8.1,5.06-12.09,7.77a13.71,13.71,0,0,0,2.51-3.19c-1.56.56-3.07-.23-4.59-.28-2.81.07-4.7,2.2-6.64,4.42a33.89,33.89,0,0,1-9.29,7.92c-4,2.28-8.75,3-12.91,4.61-.86.32-1.4.76-2.1,1.08a149.15,149.15,0,0,0,29.33,18.4,7.87,7.87,0,0,0,.89.36,30.35,30.35,0,0,1,5.4-3.22c2-.68,4-.65,5.81-1.16,2.61-.73,5-2.74,7.43-3.93a55,55,0,0,1,5.26-2.82c1.53-.68,3.3-1,4.89-1.72,2.73-1.09,3.73-3.1,5.57-4.67,1.66-1.27,5-1.44,5.06-4.17a4.22,4.22,0,0,0-3.6.37c-2.15.88-4,2.36-6.24,3.48-1.21.42-3.85,2.95-5.21,2.66-4.11-.64,2.85-7.39,4.3-8.56.86-.45,1.91-.56,2.79-1.08,1.42-.69,2.33-1.92,3.73-2.5a28.57,28.57,0,0,1,6.57-1.68c4-.81,7-.84,10.77-2.94,4.85-2.65,8.51-7.14,12.42-10.94,4.19-4,9.77-4.14,14.47-7.25,6.89-4.73,11.84-13.48,19.69-16.66,3-1.15,5.42-1.44,8.25-2.93a70.59,70.59,0,0,0,8.33-6.46c4.44-3.61,8.63-7.16,12.23-11.89,1.94-2.17,4.18-3.06,6.67-4.86,1.71-1.24,3-3.24,4.72-4.3.76-.4,1.1-.32,2-.8a13.05,13.05,0,0,0,1.63-1.25c1.77-1.53,3.26-3.26,5-4.54,2.95-2.84,9.18-6.26,9.36-10.78-2.31-.82-5.76,2.92-7.56,4.15-1.86,1.46-6.37,5.07-8.74,4.5.82-2.6,4-4.64,6-6.46s4.53-3.2,5.77-5.59c1.5-3.24,3.06-6.17,5.7-8.42,1.56-1.45,3.36-1.77,5.17-2.77a18.57,18.57,0,0,0,6.52-5.19c3.42-4.13,6.94-6.74,10.87-9.92,1.78-1.52,6.32-7.22,8.55-4.85a3.58,3.58,0,0,0-.41,1.84c3.41-2.36,6.33-5,7.08-9.27-.92-.29-1.92.24-2.75.07.38-3.92,5.17-7.47,7.26-10.6.74-1.17,1.24-3.89-1-2.88-.85.48-2.57,3.53-3.23,4.3-2.67,3.48-6,6.43-8.72,10a101.39,101.39,0,0,1-10.59,11.33,49.88,49.88,0,0,1-4.82,3.54c-2.16,1.36-3.55,3.56-5.64,5.33-4.68,4.18-9.33,8-14,11.69-2.93,2.32-6.46,3.18-9.3,5.5-2.68,2.2-7.68,7.22-11.87,5.22,4.55-5.7,10.66-10.43,15.36-16.07,3.2-3.52,7.14-5.77,10.3-9.31,2.69-3,5.87-5.1,8.57-7.79,1.77-1.89,3.22-4.1,5-5.86,2.4-2.33,5.08-4.54,7.56-6.83,2.93-2.82,6-5.72,8.83-8.44,2.19-2.36,4.9-3.49,7.15-5.33a8.12,8.12,0,0,0,2.83-5.47c0-2.73-1.2-2-3.28-1.56-1.77.36-3.45.31-4.87,1.4-1.71,1-3,2.14-4.78,3-1.59,1-3.3,1.17-4.86,2a21.64,21.64,0,0,0-3.65,3.2,112.48,112.48,0,0,0-7.77,9,61.81,61.81,0,0,1-14,11.69c-2.16,1.48-3.63,3.21-6.15,4.18,3.32-3.46,5.53-7.77,9.24-10.8,3.71-2.82,6.35-6.24,9.34-9.56,3.4-3.74,7.84-6.43,11.68-9.81,2.82-2.41,5.87-3.17,8.47-5.42-2,.45-3.3,3.29-5.68,1.48C270.9,100.67,274.22,99.57,275.93,96.85Z" fill="#8e9bcc"/></g><path d="M152.1,71.39c-1.22,1.76-1.92,3.94-3.09,5.54a12.45,12.45,0,0,0-1.44,2c-.63,1-1.2,1.6-1.69,2.53-.2.56-.91,2.09-.28,2.66.81.71,2.08-.89,2.91-1.37a19.5,19.5,0,0,0,4.35-3.65c1.21-1.37,3-2.22,4.73-3.23,2.08-1,5-1.27,6.4-3.21.67-.64.79-1.64,1.39-2.2a6,6,0,0,1,2.23-1.73c1.53-1,3-1.9,4.63-2.93a38.91,38.91,0,0,1,5.53-3c.73-.6.49-1.29,1.22-1.81s1.42-.6,2.08-1.17a38.94,38.94,0,0,1,4.43-2.89c1.32-.87,2.18-2.52,4.05-2.49,2.55-.2,3.78-.84,5-3.41.31-.8.83-3.05,1.45-3.57.8-.32,2.72.6,2.89-1,1.24.32,2.83-2.24,2.41-3.45-.92-2.09-3.27-.53-4.11.16-1.47,1-3,2.17-4.44,3.13-.85.48-1.77.93-2.64,1.41a7.59,7.59,0,0,1-1.64,1c-.46.09-.92,0-1.38.12a17.12,17.12,0,0,0-2,2.06,13.5,13.5,0,0,1-2,1.33c-1.94,1.13-3.72,2.68-5.63,3.81-2.45,1.21-4.78,1.81-7,2.89a10.54,10.54,0,0,0-2.61,2.08,4.25,4.25,0,0,1-1.17,1.1,6.36,6.36,0,0,1-1,0c-1.43.4-1.59,1.77-2.75,2.58-1.42,1-3.21,1.37-4.47,2.51-1.27.9-1.73,2.54-3.15,3.11-1.27.28-2.65-.53-3,1.12Z" opacity="0.8" fill="url(#linear-gradient)"/><g opacity="0.9"><path d="M92.2,266.4c-2.48,0-6.12,3.5-8.09,5.59,3.59,2.2,6.8-1.42,9.8-3.13s6-3.31,9-4.91c1.48-.93,2.79-1,4.48-1.6,1.8-1,3.36-2.53,5.4-3.34,3.56-1.48,6.38-3.77,9.59-6.29,2.56-2.34,5.31-3.9,7.9-6.36,3.26-2.56,6.61-5.86,10.4-7.7,2.63-1.17,10-2.77,10.45-6.27.57-3.94-5.66,1.45-7.18,2.33-2.94,1.6-6,2.84-9,4.7a51.65,51.65,0,0,0-8.82,6.63c-2.54,2.39-5.88,3.92-8.77,5.93-2.71,2-6.22,2.34-9.3,3.7-3.25,1.65-5.89,1.08-8.72,3.86-2.22,2.1-5.94,4.1-6.35,7.22Z" opacity="0.7" fill="url(#linear-gradient-2)"/><g opacity="0.7"><path d="M157.86,225.85a4.34,4.34,0,0,0-2.36,2.55,3.08,3.08,0,0,0,4.77-2.2c-.3-.35-.6-.8-1.06-.93Z" fill="url(#linear-gradient-3)"/><path d="M174.62,210.07A4.77,4.77,0,0,0,170.9,213c-.73,2.49,1.7,1.45,3.25.56a7.4,7.4,0,0,0,3.44-3.44c.72-2.46-1.16-1-2.27,0Z" fill="url(#linear-gradient-4)"/><path d="M168.5,217.36c-1.28,1.13-2.43,1.41-2.91,3.23,1.7,1.72,4.66-2,5.35-3.35a2,2,0,0,0-1.8-.52Z" fill="url(#linear-gradient-5)"/></g><path d="M128.58,226.85c-2.18-2.41-4.35,3.09-5.5,4.3-.92,1.2-3.78.91-3.8,2.69.07,2.57,2.47.59,3.31.27.15,1.85,2.18,1.37,3.25.44,1.7-1.77-.06-1.72-.09-3.25.08-3,5.39-2.28,7.22-2.68,1.63-.65,1.7-1.86,2.88-3,1.13-.74,2.65-1,3.46-1.54,1.88-1.16,4.33-4.22,6.95-2.45a2.55,2.55,0,0,1-.54-.75,4.37,4.37,0,0,1,.58-.69c4.55.28,4.9-3.09,7.54-5.5,2-2,5.4-2.82,7.62-4.71,5-4,11.7-6,16.87-10,1.32-1.19,1.81-2.85,2.89-4.21a28.49,28.49,0,0,1,3.75-3.3c2.75-2.22,4.66-5.35,7.62-7.38s5.09-3.3,7.32-6.55a16.85,16.85,0,0,1,8.29-7c2.91-1,5.12-2.89,7.63-4.7,2.74-2.18,5.68-3.69,8.27-5.62s6-3.09,8.27-5.38,4.52-5.14,6.71-7.63c2.38-2.82,5.62-3.86,8.06-6.35,2.48-2.26,4.64-5.26,7-7.83,2.51-2.65,5.65-4.23,8.33-6.78,1.45-1.49,2.6-1.65,4.47-2.37,2.2-1.25,2.53-3.37,3.75-5.23,1.08-2.09,2.78-3.74,4.22-5.58-2.69-.12-5.88,3.06-8.07,4.45a60.26,60.26,0,0,0-7.92,6.15c-5.91,5.59-12.16,11.08-18,16.39-3.17,2.92-7.7,3.69-10.6,6.63a57.28,57.28,0,0,1-10.61,8.15,62.59,62.59,0,0,0-9.75,7.22c-3,2.41-6,3.25-9.06,5.43-3.71,2.76-6.76,4.65-9.3,8.44a53.77,53.77,0,0,1-9.64,11.11c-3,2.61-6,5.06-8.83,7.79a8.84,8.84,0,0,1-4.27,2.66c-2.06.67-3,1.8-4.9,3.29-1.37,1.15-3,1.25-4.5,2.32-1.4.84-2.44,2.3-3.87,3.31-2.85,2-5.57,4.89-8.63,6.38-2.59,1.32-5.44,1.53-7.87,3.61-2.49,2.33-4.55,4.57-6.82,7-.69.61-1.31,1.25-2.1,1.84Z" opacity="0.7" fill="url(#linear-gradient-6)"/></g><path d="M275.89,100.75c-1.51,1.28-1.07,3.65,1.12,2.84,1.56-.6,2.44-2.6,1.14-3.77a1.62,1.62,0,0,0-1.48.28Z" fill="#fff" opacity="0.7"/><path d="M61.81,264.27c2.2-1.85,5.43-3.61,5.48-6.82l-.61-.24c-.32.72-3.44,2.68-4.17,2.29-1.53-.81,1.25-3.57-1.44-3.7-1.14-.16-4.41,3.7-6.52,4.7,1.87,1.81,4,3.41,5.91,5.05A9.46,9.46,0,0,0,61.81,264.27Z" fill="#fff" opacity="0.7"/><g mask="url(#mask-2)"><path d="M296,150.14a146,146,0,1,1-146-146A146,146,0,0,1,296,150.14Z" opacity="0.5" fill="url(#radial-gradient-3)" style="mix-blend-mode:multiply"/></g></g></g></svg>