<svg xmlns="http://www.w3.org/2000/svg" xmlns:xlink="http://www.w3.org/1999/xlink" viewBox="0 0 300 125"><defs><filter id="luminosity-noclip" x="87.19" y="-8255" width="127.92" height="32766" filterUnits="userSpaceOnUse" color-interpolation-filters="sRGB"><feFlood flood-color="#fff" result="bg"/><feBlend in="SourceGraphic" in2="bg"/></filter><mask id="mask" x="87.19" y="-8255" width="127.92" height="32766" maskUnits="userSpaceOnUse"><g filter="url(#luminosity-noclip)"/></mask><radialGradient id="radial-gradient" cx="241.13" cy="22.32" r="107.53" gradientTransform="matrix(0.97, -0.26, -0.26, -0.97, -33.49, 164.97)" gradientUnits="userSpaceOnUse"><stop offset="0" stop-color="#999"/><stop offset="1" stop-color="#fff"/></radialGradient><linearGradient id="New_Gradient_Swatch_2" x1="204.6" y1="-6.39" x2="204.6" y2="109.09" gradientTransform="matrix(0.97, -0.26, -0.26, -0.97, -33.49, 164.97)" gradientUnits="userSpaceOnUse"><stop offset="0" stop-color="#585b5b"/><stop offset="0.02" stop-color="#585b5b"/><stop offset="0.05" stop-color="#827b6c"/><stop offset="0.1" stop-color="#817f6e"/><stop offset="0.11" stop-color="#817f6e"/><stop offset="0.12" stop-color="#918c76"/><stop offset="0.13" stop-color="#86826d"/><stop offset="0.13" stop-color="#918c76"/><stop offset="0.16" stop-color="#a49e80"/><stop offset="0.2" stop-color="#98946d"/><stop offset="0.23" stop-color="#97936e"/><stop offset="0.29" stop-color="#b9af80"/><stop offset="0.33" stop-color="#9b8f70"/><stop offset="0.37" stop-color="#daca90"/><stop offset="0.43" stop-color="#daca90"/><stop offset="0.48" stop-color="#d0bb75"/><stop offset="0.53" stop-color="#e6ce85"/><stop offset="0.58" stop-color="#c9ae75"/><stop offset="0.61" stop-color="#c5aa73"/><stop offset="0.66" stop-color="#c5ae7c"/><stop offset="0.68" stop-color="#bca373"/><stop offset="0.7" stop-color="#bdab7f"/><stop offset="0.74" stop-color="#ab9b71"/><stop offset="0.77" stop-color="#ab9b71"/><stop offset="0.78" stop-color="#b3a57f"/><stop offset="0.83" stop-color="#9b9074"/><stop offset="0.86" stop-color="#958e6e"/><stop offset="0.89" stop-color="#837f6e"/><stop offset="0.94" stop-color="#817e60"/><stop offset="0.99" stop-color="#504b3b"/></linearGradient><clipPath id="clip-path"><path d="M211.25,47.3c-8.26-31-41.86-48.89-75.05-40S82.77,48.39,91,79.37s41.87,48.87,75.06,40S219.51,78.27,211.25,47.3Z" fill="none"/></clipPath><filter id="luminosity-noclip-3" x="87.19" y="3.12" width="127.92" height="120.41" filterUnits="userSpaceOnUse" color-interpolation-filters="sRGB"><feFlood flood-color="#fff" result="bg"/><feBlend in="SourceGraphic" in2="bg"/></filter><mask id="mask-3" x="87.19" y="3.12" width="127.92" height="120.41" maskUnits="userSpaceOnUse"><g mask="url(#mask)" filter="url(#luminosity-noclip-3)"><path d="M213.21,46.78c-8.54-32-43.25-50.46-77.5-41.32S80.58,47.91,89.08,79.88s43.22,50.46,77.51,41.31S221.71,78.75,213.21,46.78Z" fill="url(#radial-gradient)" style="mix-blend-mode:multiply"/></g></mask><radialGradient id="radial-gradient-3" cx="241.13" cy="22.32" r="107.53" gradientTransform="matrix(0.97, -0.26, -0.26, -0.97, -33.49, 164.97)" gradientUnits="userSpaceOnUse"><stop offset="0" stop-color="#fff"/><stop offset="1" stop-color="#3e3e3d"/></radialGradient><clipPath id="clip-path-2"><path d="M215.05,51.76,229.2,105,101.61,139,87.3,85.36c-8.8.82-14.17.44-14.65-1.39-1.32-4.88,32.85-18.23,76.29-29.81s79.68-17,81-12.12C230.47,44.05,224.87,47.55,215.05,51.76Z" fill="none"/></clipPath></defs><g style="isolation:isolate"><g id="Layer_1" data-name="Layer 1"><path d="M211.25,47.3c-8.26-31-41.86-48.89-75.05-40S82.77,48.39,91,79.37s41.87,48.87,75.06,40S219.51,78.27,211.25,47.3Z" fill="url(#New_Gradient_Swatch_2)"/><path d="M116.8,37.8A2.13,2.13,0,0,1,115,38c-.21-.11-.26-.38-.35-.61a.62.62,0,0,1,.09-.7,2.27,2.27,0,0,1,.92-1.06,3.22,3.22,0,0,1,1.32-.33c.48,0,1-.22,1.48,0a.7.7,0,0,1,.37,1c-.26.77-1,1-1.7,1.33Z" fill="#928565"/><path d="M115.43,36.54c.06.22-.05.51.1.73a1,1,0,0,0,.83.32,2,2,0,0,0,1.24-.75c.2-.18.43-.4.4-.67s-.42-.57-.75-.6a2,2,0,0,0-.93.16c-.25.09-.34.31-.52.49-.06,0-.06,0-.11.08Z" fill="#8b8064"/><path d="M155.65,27.88c-.15.88,1.18,1,1.79,1.06a3.83,3.83,0,0,0,2.06-.23,2.83,2.83,0,0,0,.42-.34,1.12,1.12,0,0,0,.34-.31,1.29,1.29,0,0,0,.11-1c-.12-.46-.45-.61-.87-.76a3.46,3.46,0,0,0-1.28-.24,3.75,3.75,0,0,0-1.87.32,1.18,1.18,0,0,0-.64,1.3Z" fill="#cbb782"/><path d="M156.24,27.3c0,.16,0,.37,0,.55a.57.57,0,0,0,.34.44,2.27,2.27,0,0,0,1.22.31c.62,0,1.9,0,2.14-.73a.91.91,0,0,0-.35-1,1.74,1.74,0,0,0-.62-.24,3.1,3.1,0,0,0-.77-.18,2.51,2.51,0,0,0-1.18.07c-.29.11-.66.27-.7.6Z" fill="#b2a378"/><path d="M157.13,27.25c-.13.46.12.68.57.84s1.26.21,1.48-.19-.17-.8-.47-.9a2.07,2.07,0,0,0-1.13,0l-.35.08Z" fill="#aba580"/><path d="M171.54,22.88c0,.36,0,.75.23,1a2.19,2.19,0,0,0,.87.55c.46.24,1.6.26,1.74-.42a1.87,1.87,0,0,0-.11-.87,1.37,1.37,0,0,0-.89-.72,1.55,1.55,0,0,0-1.77.35Z" fill="#c2b384"/><path d="M171.77,23.07c.13.31.07.65.33.93a2,2,0,0,0,.93.37c.65.15,1.5-.16,1.15-1a1.43,1.43,0,0,0-1-.82,2.18,2.18,0,0,0-.77.05c-.26,0-.36.19-.57.3Z" fill="#b4a67e"/><path d="M172.44,23.17c-.31.15,0,.64.18.79a1.25,1.25,0,0,0,1,.19c.41-.06.36-.46.11-.73a1.18,1.18,0,0,0-1-.42l-.14.07Z" fill="#b7b085"/><path d="M146.57,30.6c-.06-.06-.16-.11-.19-.22a.43.43,0,0,1,.45-.08,1.39,1.39,0,0,1,.46.08c.26.21-.47.34-.63.19Z" fill="#ccbc8a"/><path d="M146.26,32.46a1.38,1.38,0,0,1-1,0,.91.91,0,0,1-.6-.74c-.25-.76.74-.94,1.31-1a2.07,2.07,0,0,1,.49-.07,2.9,2.9,0,0,0,.5-.19c.37-.12.51.35.6.59a.78.78,0,0,1-.22.88,1.09,1.09,0,0,1-.45.24c-.06.06-.38.22-.45.18s-.09.09-.12.06Z" fill="#b6a677"/><path d="M146.21,32.19a1.49,1.49,0,0,1-1.22-.14c-.32-.27,0-.58.16-.81a1.67,1.67,0,0,1,.94-.35c.39-.08.8-.13,1,.21.4.54-.31,1-.8,1Z" fill="#a79d7c"/><path d="M145.31,35.54a2.07,2.07,0,0,0,.82.06c.12,0,.2-.05.32-.06s.2,0,.27,0c-.18-.09-.45-.28-.67-.25l-.29.11c-.1,0-.19,0-.28.07Z" fill="#c9b381"/><path d="M148,30.94c.29,0,.69-.2.64-.56a1.25,1.25,0,0,0-.56.14c-.08.07-.32.35-.13.36Z" fill="#c0ae7c"/><path d="M147.12,35c-.18.14-.22.37,0,.35s.33-.27.08-.36Z" fill="#c1b07f"/><path d="M149.78,39.12a.19.19,0,0,0-.14.28c.23,0,.33-.24.15-.33Z" fill="#cab386"/><path d="M157.18,36.24c.43-.12.81-.18,1,.24.32,0,.44-.2.71,0-.18-.11-.63.15-.79.3s-.11.21-.19.33-.12,0-.31.1-.23.16-.35.18-.29,0-.43.08-.52.3-.78.4c0-.56,1.2-.76,1.58-.88-.1-.29.43-.35.26-.6s-.47,0-.6.1,0-.07,0-.11-.13,0-.16,0Z" fill="#d1ba82"/><path d="M154.67,40.24s-.3.1-.31.19.46.12.59.08c0-.28-.23-.17-.39-.19Z" fill="#cab382"/><path d="M153.11,40.31a.22.22,0,0,0-.11.36c.09-.09.45-.35.13-.4Z" fill="#cab382"/><path d="M153.85,39.54c-.09,0-.16.08-.23.17s.36.19.44.11,0-.36-.11-.3Z" fill="#cab382"/><path d="M162.89,36.47c.1-.13.16-.32.3-.41s.41-.06.52-.24,0-.22,0-.3.18-.16.23-.2a1.75,1.75,0,0,1,.48-.29,1.57,1.57,0,0,1,.45-.13c.1,0,.16,0,.28,0s.12-.18.21-.22.32-.06.45-.14a3.55,3.55,0,0,1,.43-.23c0-.35.29-.22.48-.22a.41.41,0,0,0,.3,0s0-.12.09-.13.11.06.2.07.17.13.31,0,.07-.19-.08-.31a.59.59,0,0,0-.64-.07c-.41.1-.8.34-1.23.46-.12.05-.1.13-.28.05s-.12-.21-.21-.26c-.25-.11-.5,0-.74-.08a1.41,1.41,0,0,0,.36.27c.07.06.24,0,.31.08.26.14.09.17-.13.26s-.29.22-.45.35-.39.09-.53.17c-.32.19-.43.57-.68.77s-.41.07-.5.24,0,.37,0,.52Z" fill="#ceb682"/><path d="M163.34,32.79c.14.13.17.42,0,.5s-.22-.25-.26-.41a.18.18,0,0,1,.2,0Z" fill="#c9b580"/><path d="M163.17,31.51c0,.18-.16.7.24.52s.1-.58-.15-.54Z" fill="#c9b580"/><g opacity="0.8"><g clip-path="url(#clip-path)"><g mask="url(#mask-3)"><path d="M213.21,46.78c-8.54-32-43.25-50.46-77.5-41.32S80.58,47.91,89.08,79.88s43.22,50.46,77.51,41.31S221.71,78.75,213.21,46.78Z" opacity="0.6" fill="url(#radial-gradient-3)" style="mix-blend-mode:multiply"/></g></g></g><path d="M293.47,25c-2.15-8.09-67.57,2.32-146.12,23.26S6.9,92.76,9.05,100.83s67.59-2.3,146.12-23.27S295.66,33.1,293.47,25Z" fill="#848383"/><path d="M291.4,25.58c-2.21-8.31-66.75,1.69-144.13,22.34S9,92,11.16,100.32,77.91,98.61,155.3,78,293.61,33.86,291.4,25.58Z" fill="#222221"/><path d="M290.87,25.73c-2.22-8.3-66.5,1.68-143.59,22.25S9.5,91.92,11.71,100.17s66.47-1.69,143.56-22.28S293.06,34,290.87,25.73Z" fill="#675943"/><path d="M282.15,28.1C280,20,219.65,29,147.37,48.3S18.27,89.77,20.43,97.89,83,97,155.2,77.69,284.32,36.22,282.15,28.1Z" fill="#71705a"/><path d="M280.86,28.44c-2.14-8-61.9.9-133.44,20S19.57,89.52,21.72,97.56s61.89-.92,133.46-20S283,36.48,280.86,28.44Z" fill="#8c867f"/><path d="M279.68,28.74c-2.12-7.95-61.33.92-132.24,19.84S20.8,89.27,22.91,97.23s61.33-.9,132.24-19.82S281.81,36.72,279.68,28.74Z" fill="#5a4d3a"/><path d="M278.4,29.1c-2.13-7.87-60.72.92-130.92,19.62S22.09,89,24.21,96.9,84.91,96,155.08,77.26,280.49,37,278.4,29.1Z" fill="#585857"/><path d="M277.25,29.4c-2.08-7.8-60.16.89-129.72,19.45S23.25,88.78,25.33,96.59,85.5,95.7,155.08,77.16,279.32,37.22,277.25,29.4Z" fill="#2b2926"/><path d="M276.28,29.66c-2.07-7.75-59.71.88-128.75,19.29S24.24,88.57,26.29,96.33,86,95.44,155,77.05,278.34,37.41,276.28,29.66Z" fill="#3e3c3a"/><path d="M273.94,30.29c-2-7.62-58.57.87-126.32,18.94s-121,38.86-119,46.47S87.23,94.85,155,76.77,276,37.88,273.94,30.29Z" fill="#222221"/><path d="M271.51,31c-2-7.48-57.43.83-123.82,18.53S29.1,87.61,31.07,95.06s57.44-.84,123.82-18.55S273.5,38.39,271.51,31Z" fill="#907d62"/><path d="M269.15,31.57c-1.95-7.32-56.3.83-121.4,18.17S31.5,87.12,33.42,94.43s56.31-.85,121.4-18.18S271.1,38.88,269.15,31.57Z" fill="#766f5f"/><path d="M266.81,32.19C264.9,25,211.62,33,147.85,50s-114,36.63-112.08,43.8S91,93,154.77,76,268.73,39.37,266.81,32.19Z" fill="#5e5e5d"/><path d="M263.68,33c-1.88-7-53.69.8-115.76,17.34S37.05,86,38.91,93s53.7-.8,115.75-17.33S265.53,40,263.68,33Z" fill="#5c5850"/><path d="M261.79,33.53C260,26.65,209,34.28,148,50.6S39,85.62,40.76,92.48s52.79-.79,113.84-17.06S263.65,40.39,261.79,33.53Z" fill="#67604d"/><path d="M259.46,34.14c-1.78-6.72-51.66.78-111.42,16.71s-106.7,34.27-104.91,41,51.66-.75,111.4-16.71S261.24,40.87,259.46,34.14Z" fill="#565551"/><path d="M256.33,35c-1.73-6.52-50.19.73-108.2,16.2S44.52,84.5,46.25,91s50.16-.74,108.18-16.2S258.07,41.51,256.33,35Z" fill="#494b4f"/><path d="M252.41,36c-1.69-6.28-48.31.71-104.15,15.6S48.51,83.7,50.18,90s48.3-.71,104.15-15.61S254.08,42.31,252.41,36Z" fill="#5d4f43"/><path d="M249.28,36.87c-1.63-6.08-46.82.7-100.94,15.13s-96.66,31.05-95,37.12S100.11,88.45,154.23,74,250.9,43,249.28,36.87Z" fill="#544d48"/><path d="M247.5,37.34c-1.59-6-45.95.67-99.09,14.86S53.49,82.69,55.09,88.65s46-.68,99.09-14.84S249.09,43.3,247.5,37.34Z" fill="#494b4f"/><path d="M246.45,37.61c-1.57-5.89-45.46.68-98,14.71S54.56,82.48,56.13,88.39s45.46-.68,98-14.69S248,43.53,246.45,37.61Z" fill="#565551"/><path d="M242.53,38.68c-1.51-5.67-43.59.62-94,14.08s-90,28.92-88.5,34.55,43.58-.62,94-14.07S244,44.34,242.53,38.68Z" fill="#363738"/><path d="M240.92,39.08c-1.48-5.55-42.81.65-92.31,13.84s-88.43,28.44-86.94,34,42.82-.64,92.31-13.83S242.39,44.67,240.92,39.08Z" fill="#494b4f"/><path d="M237.77,39.94c-1.41-5.39-41.3.61-89.06,13.35s-85.33,27.4-83.9,32.76,41.31-.6,89.06-13.34S239.21,45.28,237.77,39.94Z" fill="#63615d"/><path d="M233.86,41c-1.37-5.11-39.46.59-85.05,12.74S67.36,79.9,68.72,85s39.45-.6,85.05-12.76S235.23,46.1,233.86,41Z" fill="#2f2e2b"/><path d="M230,42c-1.33-4.91-37.57.53-81,12.12S71.33,79.09,72.65,84s37.55-.53,81-12.15S231.24,46.89,230,42Z" fill="#1b1b18"/><g clip-path="url(#clip-path-2)"><path d="M211.25,47.3c-8.26-31-41.86-48.89-75.05-40S82.77,48.39,91,79.37s41.87,48.87,75.06,40S219.51,78.27,211.25,47.3Z" fill="url(#New_Gradient_Swatch_2)"/><path d="M116.8,37.8A2.13,2.13,0,0,1,115,38c-.21-.11-.26-.38-.35-.61a.62.62,0,0,1,.09-.7,2.27,2.27,0,0,1,.92-1.06,3.22,3.22,0,0,1,1.32-.33c.48,0,1-.22,1.48,0a.7.7,0,0,1,.37,1c-.26.77-1,1-1.7,1.33Z" fill="#928565"/><path d="M115.43,36.54c.06.22-.05.51.1.73a1,1,0,0,0,.83.32,2,2,0,0,0,1.24-.75c.2-.18.43-.4.4-.67s-.42-.57-.75-.6a2,2,0,0,0-.93.16c-.25.09-.34.31-.52.49-.06,0-.06,0-.11.08Z" fill="#8b8064"/><path d="M155.65,27.88c-.15.88,1.18,1,1.79,1.06a3.83,3.83,0,0,0,2.06-.23,2.83,2.83,0,0,0,.42-.34,1.12,1.12,0,0,0,.34-.31,1.29,1.29,0,0,0,.11-1c-.12-.46-.45-.61-.87-.76a3.46,3.46,0,0,0-1.28-.24,3.75,3.75,0,0,0-1.87.32,1.18,1.18,0,0,0-.64,1.3Z" fill="#cbb782"/><path d="M156.24,27.3c0,.16,0,.37,0,.55a.57.57,0,0,0,.34.44,2.27,2.27,0,0,0,1.22.31c.62,0,1.9,0,2.14-.73a.91.91,0,0,0-.35-1,1.74,1.74,0,0,0-.62-.24,3.1,3.1,0,0,0-.77-.18,2.51,2.51,0,0,0-1.18.07c-.29.11-.66.27-.7.6Z" fill="#b2a378"/><path d="M157.13,27.25c-.13.46.12.68.57.84s1.26.21,1.48-.19-.17-.8-.47-.9a2.07,2.07,0,0,0-1.13,0l-.35.08Z" fill="#aba580"/><path d="M171.54,22.88c0,.36,0,.75.23,1a2.19,2.19,0,0,0,.87.55c.46.24,1.6.26,1.74-.42a1.87,1.87,0,0,0-.11-.87,1.37,1.37,0,0,0-.89-.72,1.55,1.55,0,0,0-1.77.35Z" fill="#c2b384"/><path d="M171.77,23.07c.13.31.07.65.33.93a2,2,0,0,0,.93.37c.65.15,1.5-.16,1.15-1a1.43,1.43,0,0,0-1-.82,2.18,2.18,0,0,0-.77.05c-.26,0-.36.19-.57.3Z" fill="#b4a67e"/><path d="M172.44,23.17c-.31.15,0,.64.18.79a1.25,1.25,0,0,0,1,.19c.41-.06.36-.46.11-.73a1.18,1.18,0,0,0-1-.42l-.14.07Z" fill="#b7b085"/><path d="M146.57,30.6c-.06-.06-.16-.11-.19-.22a.43.43,0,0,1,.45-.08,1.39,1.39,0,0,1,.46.08c.26.21-.47.34-.63.19Z" fill="#ccbc8a"/><path d="M146.26,32.46a1.38,1.38,0,0,1-1,0,.91.91,0,0,1-.6-.74c-.25-.76.74-.94,1.31-1a2.07,2.07,0,0,1,.49-.07,2.9,2.9,0,0,0,.5-.19c.37-.12.51.35.6.59a.78.78,0,0,1-.22.88,1.09,1.09,0,0,1-.45.24c-.06.06-.38.22-.45.18s-.09.09-.12.06Z" fill="#b6a677"/><path d="M146.21,32.19a1.49,1.49,0,0,1-1.22-.14c-.32-.27,0-.58.16-.81a1.67,1.67,0,0,1,.94-.35c.39-.08.8-.13,1,.21.4.54-.31,1-.8,1Z" fill="#a79d7c"/><path d="M145.31,35.54a2.07,2.07,0,0,0,.82.06c.12,0,.2-.05.32-.06s.2,0,.27,0c-.18-.09-.45-.28-.67-.25l-.29.11c-.1,0-.19,0-.28.07Z" fill="#c9b381"/><path d="M148,30.94c.29,0,.69-.2.64-.56a1.25,1.25,0,0,0-.56.14c-.08.07-.32.35-.13.36Z" fill="#c0ae7c"/><path d="M147.12,35c-.18.14-.22.37,0,.35s.33-.27.08-.36Z" fill="#c1b07f"/><path d="M149.78,39.12a.19.19,0,0,0-.14.28c.23,0,.33-.24.15-.33Z" fill="#cab386"/><path d="M157.18,36.24c.43-.12.81-.18,1,.24.32,0,.44-.2.71,0-.18-.11-.63.15-.79.3s-.11.21-.19.33-.12,0-.31.1-.23.16-.35.18-.29,0-.43.08-.52.3-.78.4c0-.56,1.2-.76,1.58-.88-.1-.29.43-.35.26-.6s-.47,0-.6.1,0-.07,0-.11-.13,0-.16,0Z" fill="#d1ba82"/><path d="M154.67,40.24s-.3.1-.31.19.46.12.59.08c0-.28-.23-.17-.39-.19Z" fill="#cab382"/><path d="M153.11,40.31a.22.22,0,0,0-.11.36c.09-.09.45-.35.13-.4Z" fill="#cab382"/><path d="M153.85,39.54c-.09,0-.16.08-.23.17s.36.19.44.11,0-.36-.11-.3Z" fill="#cab382"/><path d="M162.89,36.47c.1-.13.16-.32.3-.41s.41-.06.52-.24,0-.22,0-.3.18-.16.23-.2a1.75,1.75,0,0,1,.48-.29,1.57,1.57,0,0,1,.45-.13c.1,0,.16,0,.28,0s.12-.18.21-.22.32-.06.45-.14a3.55,3.55,0,0,1,.43-.23c0-.35.29-.22.48-.22a.41.41,0,0,0,.3,0s0-.12.09-.13.11.06.2.07.17.13.31,0,.07-.19-.08-.31a.59.59,0,0,0-.64-.07c-.41.1-.8.34-1.23.46-.12.05-.1.13-.28.05s-.12-.21-.21-.26c-.25-.11-.5,0-.74-.08a1.41,1.41,0,0,0,.36.27c.07.06.24,0,.31.08.26.14.09.17-.13.26s-.29.22-.45.35-.39.09-.53.17c-.32.19-.43.57-.68.77s-.41.07-.5.24,0,.37,0,.52Z" fill="#ceb682"/><path d="M163.34,32.79c.14.13.17.42,0,.5s-.22-.25-.26-.41a.18.18,0,0,1,.2,0Z" fill="#c9b580"/><path d="M163.17,31.51c0,.18-.16.7.24.52s.1-.58-.15-.54Z" fill="#c9b580"/><g opacity="0.8"><g clip-path="url(#clip-path)"><g mask="url(#mask-3)"><path d="M213.21,46.78c-8.54-32-43.25-50.46-77.5-41.32S80.58,47.91,89.08,79.88s43.22,50.46,77.51,41.31S221.71,78.75,213.21,46.78Z" opacity="0.9" fill="url(#radial-gradient-3)" style="mix-blend-mode:multiply"/></g></g></g></g></g></g></svg>