<svg xmlns="http://www.w3.org/2000/svg" xmlns:xlink="http://www.w3.org/1999/xlink" viewBox="0 0 300 300"><defs><filter id="luminosity-noclip" width="276.13" height="32766" x="15.42" y="-8342" color-interpolation-filters="sRGB" filterUnits="userSpaceOnUse"><feFlood flood-color="#fff" result="bg"/><feBlend in="SourceGraphic" in2="bg"/></filter><radialGradient id="radial-gradient" cx="130.8" cy="128.04" r="149.24" gradientUnits="userSpaceOnUse"><stop offset="0"/><stop offset="1" stop-color="#fff"/></radialGradient><radialGradient id="radial-gradient-2" cx="-11.05" cy="178.33" r="231.25" gradientTransform="translate(279.2 -14.88) rotate(66.62)" gradientUnits="userSpaceOnUse"><stop offset=".08" stop-color="#c1dff0"/><stop offset=".64" stop-color="#66aae0"/><stop offset="1" stop-color="#485aa0"/></radialGradient><linearGradient id="New_Gradient_Swatch_1" x1="14.84" x2="136.14" y1="111.96" y2="111.96" gradientTransform="translate(279.2 -14.88) rotate(66.62)" gradientUnits="userSpaceOnUse"><stop offset=".01" stop-color="#45559d"/><stop offset=".28" stop-color="#c1dff0"/><stop offset=".64" stop-color="#66aae0"/><stop offset="1" stop-color="#485aa0"/></linearGradient><linearGradient id="New_Gradient_Swatch_1-2" x1="14.16" x2="189.09" y1="83.57" y2="83.57" xlink:href="#New_Gradient_Swatch_1"/><linearGradient id="linear-gradient" x1="-24.9" x2="244.33" y1="217.27" y2="139.77" gradientTransform="translate(279.2 -14.88) rotate(66.62)" gradientUnits="userSpaceOnUse"><stop offset=".01" stop-color="#66aae0"/><stop offset="1" stop-color="#45559d"/></linearGradient><filter id="luminosity-noclip-2" width="276.13" height="276.16" x="15.42" y="12" color-interpolation-filters="sRGB" filterUnits="userSpaceOnUse"><feFlood flood-color="#fff" result="bg"/><feBlend in="SourceGraphic" in2="bg"/></filter><mask id="mask-2" width="276.13" height="276.16" x="15.42" y="12" maskUnits="userSpaceOnUse"><g filter="url(#luminosity-noclip-2)" mask="url(#mask)"><path fill="url(#radial-gradient)" d="M291.55,150.1A138.07,138.07,0,1,1,153.47,12,138.06,138.06,0,0,1,291.55,150.1Z" style="mix-blend-mode:multiply"/></g></mask><radialGradient id="radial-gradient-3" cx="130.8" cy="128.04" r="149.24" gradientUnits="userSpaceOnUse"><stop offset="0" stop-color="#222221"/><stop offset="1"/></radialGradient></defs><g style="isolation:isolate"><g id="Layer_1" data-name="Layer 1"><path fill="url(#radial-gradient-2)" d="M208.3,276.81A138,138,0,1,1,98.79,23.49c70-30.23,151.21,1.94,181.39,71.86A138.05,138.05,0,0,1,208.3,276.81Z"/><path fill="url(#New_Gradient_Swatch_1)" d="M186,136a137.43,137.43,0,0,0,89.67,78.23,131.91,131.91,0,0,0,8.47-19.76A138,138,0,0,1,210.7,24.55a142.35,142.35,0,0,0-20.19-7.42A137.44,137.44,0,0,0,186,136Z" opacity=".1"/><path fill="#66aae0" d="M176.56,248c.06-6.89-5.72-15-8.57-20.94-2-3.92-3.51-8.66-6.34-12.18,12.43.81,5.89-6.07,6.23-14.55,3.91,2.88,8.31,6.89,13.14,7.42-.71-4.71-2.83-9.25-3.47-14,4.24.6,10.49,5.45,15,4.53-.9-1.33-1-3.65-1.9-5,9.72-1,24,22,33.27,15.75-2-4.64-6.57-7.45-9.82-11.21-2.73-3.21-4.22-7.25-6.88-10.41-2.6-2.92-5.05-3.27-6.78-7.35-1.26-2.95-1.42-6.85-2.36-8.68l-1.79-4.36c-4.46-3.87-10.53-13.3-15.47-15.51,0,3,1.58,5.73,2,8.47-3-1.86-10.41-10.86-14.35-9.17-4.62,2.18,2,14.69-8.36,7.63a33,33,0,0,1-.5,11c-.68-1.06-2.23-1.83-3.08-2.92-2.11,3.76-9.88,4.11-14,4.64-.11,10.58,3.89,26,10.69,35-12-8-23.4-16.24-32.26-27.88-2.93-3.7-4.45-7.88-7.18-11.74-2.45-3.56-7.12-6.83-10.1-11.19.07,1.69-.07,4.47-.09,6.64-4.14-.91-9.74-4.24-13.23-6.78-7.43,4.54,5.76,19.17,8,23.81-2.73-.15-6-2.86-8.41-4.54-.85,2-.6,4.61.46,7.25a69.93,69.93,0,0,0-8.16-6.41c-3-2-6.22-6.26-9.65-6.92l1.08.13C71.5,161.2,64.13,153.19,59.76,147c-.09,4,2.63,9.49.92,13.22a74.65,74.65,0,0,0-5.11-7,27.29,27.29,0,0,1,.28,4.65c-3.6-4.3-5.06-8.79-10.57-11.36-.77,8.61,3.62,18.52,6.51,26.55,3.49,9.45,7.5,19.4,12.77,28.19,7,11.88,15.92,22.46,23,34.24,2.78,4.54,7,12.17,12.64,13.26.94-2.28.72-5,2.41-7.25,10.18,4.79,18.87,13.57,29.67,17.09,3.27,1.09,7,3.41,10.05,4s5.66-.74,8.28-.7a24.13,24.13,0,0,0-.31-2.57C157.54,263.13,176.42,257.22,176.56,248Z" opacity=".7"/><path fill="#98cbef" d="M80.48,50.63c-4.59,6.72-21.12,10.73-20.79,20a34.89,34.89,0,0,1-4.17-3.09c-8,7.28-3.73,19.24-1.62,28.06,1.91,8.43,3.9,17.12,5.52,25.77,4,22.14,15.7,41.76,27.41,60.82,6.36,10.4,13.25,20.36,20.43,30.13,1.12,1.51,5.33,9.17,7.73,6.46.49-.38-1.16-6.11-1.12-7.1,2.43,3,6.53,7.46,10.31,8.23-4.78-6.71,3.52-1.29,5.85.36,3.77,2.81,7,4.56,11.69,5.3,5,.81,17,5.24,20.87,2.11-.94-4.25-6.49-7.31-9.5-10.23-3.9-3.72-8.11-7.35-11.89-11.35-7-7.45-10.82-16.63-15.91-25.35C119,170.07,113,159,107.63,147.74c-4.39-9-6.22-18.81-10.61-27.81-4.11-8.26-7.17-16-8.07-25.2-.51-6.26-1.88-12.24-2.44-18.39-.44-4.58-.11-9.71-1-14-.5-2.81-1.75-5.42-1.72-8.19Z" opacity=".6"/><path fill="url(#New_Gradient_Swatch_1-2)" d="M286.27,188.07a146.81,146.81,0,0,0,4.26-21,136.39,136.39,0,0,1-45.2-56.58A136.09,136.09,0,0,1,235,38.72,144.11,144.11,0,0,0,216.85,27.5a137.83,137.83,0,0,0,69.42,160.57Z" opacity=".1"/><path fill="url(#linear-gradient)" d="M280.18,95.35a138.2,138.2,0,0,0-55-63.31c-1.09,1.75,1.19,1.65,2.13,2.81,1.12,1.37,1.28,3.73,2.24,5.34s2,2.82,2.86,4.33c.75,1.09,1.39,2.6,2.31,4.15a3.67,3.67,0,0,0,1.77-1.2v.07a5.2,5.2,0,0,1,1.22-1.16c.56,1.13,1,2.53,1.73,3.69.19.32,1.53,1.93,1.63,2.11.69,1.65-.25,5.45,2.45,5,.57,2.07,1.51,6.5,4.6,5.41,2.07,1,2.69,2,3.51,4.05a10.7,10.7,0,0,1,1.09,3.19c.31,2,.62,3.59,2.23,5.17-1.83,1-1.86,2.68-1.36,4.47.26,1,1.21,1.51,1.39,2.35a19,19,0,0,1-.11,2.22c1.08,1.9,3.39,3.2,4.33,5.06.37.63-.14,2,.18,3,.43,1.16,1.37,1.86,1.84,2.81-2.68,2.71,3.83,9.21,5,11.57-4.72,2.32,4.55,9,2.47,11.22,2.14,1.89.31,2,.41,3.61.29,2.75-.81,1.13,1.33,3.1,1.21,1.2,3.17.78,3,3.41,0,1.23-1.27,2.21-2.2,3.24a3.76,3.76,0,0,1-.66-.46c-1.16,1.33-.06,2.95.77,3.83,0,.1-.7.28-.76.32a16.72,16.72,0,0,1,2,3.37,19.31,19.31,0,0,1-2.84.71c.31,1.33,2.58,2.53,2.26,3.79-.26,1.62-2.2,2.08-3.42,1.4a7.18,7.18,0,0,0,.92,3.17c-4.3-.1-2.84,5.95-1.33,8.09a14.89,14.89,0,0,0-.42,1.62,8.33,8.33,0,0,0-1.27,1.05c.08,1.65-.7,2-.37,3.79-2.45.15-2.41,2-5.12,1.94-2.3,0-3.83-1.94-4.76-4.22-1.63.39-3.15.81-4.73.1-.29.25-1.32,1.21-1.54,1.49.31,1.9,1.83,4.77-.89,5.55.89,4.22,6.07,4.15,7.22,8.34-3.45,2.21-4.48,8.22-2.13,11.34-1.76-.34-7-4.57-7.93-2.17-.75,2,3.39,3.38,3.71,5.31-1.62.76-2.88-.56-4.34-.81.88,2.46,2.21,6.64.81,8.79a17.81,17.81,0,0,0,2,3.83c-.52-.1-1.52.31-2.08.14,1.43,3.79,0,8.79-4.68,8,.57.7.87,2,1.44,2.71-1.68.42-2.77,2.14-3.7,2.42-2.08.64-2.9-.52-4.84-1.44.69,1.4,1.62,2.81,1.59,4.15-1.45.46-2.8-.63-4.12-1,.57,2.56-.05,3.43-1.61,5.09-1.08,1.16-4.77,2.92-1.22,5-2.36-.11-4-2.49-5.08-4.54.21.56.42,1.16.57,1.58-2.77.67-1.4,4.25-.68,6.2a2.82,2.82,0,0,0-1.5,2.52,5.1,5.1,0,0,0-3.42-.34,19,19,0,0,1,.71,1.93c-1.45.59-3.24.84-3.34,2.46-1.5.42-2.85.94-4.11,0-.18.63-1.06,3.09-1.7,3.62-1.54,1-3.68-1.47-4.08,1.44-.68-.38-2-.63-2.71-1.06-.1.43-.23.86-.34,1.21-1.53.52-3-.43-4.61.31.3,1.72-.81,2.78-2,3.76s-3.53.6-4.28,1.44c-1.65,1.72,1.34,4.64-1.58,5.52-2.46.88-4.46-3.09-5.46-4.67-2,1.4-3.25,4.14-4.86,5.76-.33-1.3-.15-2.74-.71-4.08-.4.32-.71.43-1,.71a4.09,4.09,0,0,0-3.55-.18c.28.49.45,1.23.75,1.73a8.29,8.29,0,0,0-3.64-1.65c.53.73.53,1.75.95,2.49-2.22,1.13-4.69,1.69-5.1,4.08-2.27-1.76-3.57-5.31-5.61-1.69-1.39,2.35.34,4-2.64,5.24-2.18.85-3.12-1-4.37-1.17-2.6-.17-3.51,1.27-4.94,3.31-.87-1.51-2.12-2.95-3.12-4.4a4.3,4.3,0,0,0-2,.92c-.28-.59-.67-1.08-.86-1.58-.56.6-1.31.5-1.94,1.41.07-.78-.43-1.76-.43-2.5-.91.31-1.79,0-2.68.25a3.28,3.28,0,0,1-.47-.85,5,5,0,0,1-2.84.74,2.84,2.84,0,0,1,.75,1.48c-3.82-1.69-2.66-3.06-6.62-2.18-3.74.87-3.17.81-6.21-2.15-.89,4.71-2,1.87-4,.88-1.48-.78-4.49-.53-5.3-1.82-1.66,0-2.53-1.06-1.72-2.39-1.15.77-5.27,2-5.29-1.45-5.1-.24-2-5.9-6.52-6.36-7.62-4.86-13.76-10.54-20.26-16.92-4.09-3.86-7.83-8.22-11.56-12.3-1.4-1.47-4-6.75-5.73-6.71.94,8.29,10.44,15.29,14.34,22.22,1.44,2.42,2.42,5.06,4,7.31,1.81,2.84,4.53,5,6.39,7.73,1,1.44,3.36,4.23,3.27,5.88-2.87-1.42-6.85-1.83-9.24-3.94-1.5-1.34-2.69-5.77-5.38-4.08-.33-1.9-2.66-1.37-4.1-2.57a8.22,8.22,0,0,1,.71-.67c-2.46-1.26-2.58-2.63-3.79-4.84-.68-1.24-1.58-1.34-2.15-2.86-.35-1.05.31-2.84-.43-3.65-1.61-2.25-4-.64-5.29-3.94-.67-1.79.85-3.83-2.86-3.8-.95-2-2.22-5.69-4.5-6.68-2.35-1.23-2.6,1.23-4.21-2.39-1.77-4.15-1.49-14.86-9.1-8.44-2.09-2.18-5.91-2.46-7.91-4.67-2.2-2.4-3.18-6.68-4.66-9.7-2.92-6-10.45-20.57-13.27-28.52a135.47,135.47,0,0,0,11,46.16A138,138,0,1,0,280.18,95.35Z"/><path fill="#45559d" d="M134.37,255.07a2.32,2.32,0,0,0,2.07,1.2A2.72,2.72,0,0,0,134.37,255.07Z"/><path fill="#45559d" d="M223.53,220.69a6.19,6.19,0,0,0,.55,1.09A3,3,0,0,0,223.53,220.69Z"/><path fill="#b9dbf4" d="M159.15,33.27c-8.94,17.23-3.52,42.15,1.19,60.43,3.45,13.18,10,24.47,14.64,37-5.61,1.59-15.45-11.32-18.16-16.41-1,2.53,2.5,9.45,2.89,12.9-3.36-1.23-7-3.94-10.69-1.94-2.33-2.07-4.56-5.8-7.49-6.71,0,.53-.19,1.4-.26,2.32-2.58-1.27-4.52-4.25-7.26-4.47.41.92.29,1.87.65,2.85-2.5-3-13.76-17.58-13.68-6.26-3.2-2.49-5.36-6-8.74-8.36a9.56,9.56,0,0,0-.25,4.88c-1.95-1.79-4.72-6.57-7.29-5.48-1.16.49-1.28,6.22-1.4,7.31-1,10.37,3.36,22.75,8.26,32,5.89,11.11,11.06,21.3,18.75,31.49,6.13,8.23,12.4,16.32,18.38,24.61,6.87,9.28,15.55,20.68,19.86,30.34-7.57-7-16.7-12.68-25.93-17.75-9.07-5-12-16.73-18.51-24.64a4.29,4.29,0,0,0,.62,1.2c-3.91-5-7-14.53-12.92-17.09a36.83,36.83,0,0,0,1.8,4.6c-2.59-5.59-6.22-10.65-9.13-16a7.28,7.28,0,0,0,1.22,1.55c-.8-7.07-6.14-14.2-9-20.82a120.76,120.76,0,0,1-4.93-13.92c-3-10.9-5.56-21.13-9.3-31.78-2.64-7.73-3-16.81-4.67-24.86-.93-4.5-4-19.23-.75-22.21a30.8,30.8,0,0,1,.07-8.58.55.55,0,0,1,.43.59,16.83,16.83,0,0,1-.28-3.48c1.56,1.16,3.76,3.06,5.94,3.56,1-1.2,1.53-3,2.59-4a11.13,11.13,0,0,1,3.46-2.78c2.81-1.76,6.54-4.64,9.63-5.76,1.49-.53,2,1,3.58.63a20.15,20.15,0,0,0,3.91-2.11c2.37-1.3,6.25-2.21,9.72-3.69,3.78-1.69,6.43-4.78,10.94-5.17,4-.31,8.6,1,12.84,1,5,0,17.53,5.63,18.71,11.43Z" opacity=".7"/><path fill="#5ea3d8" d="M166,172.42c-4-5.21,14-13.61,13.74-.42-.1,9.28-11.1,10.34-14.49,2.28Z"/><path fill="#b0d7f3" d="M169.88,173.06c-.1-5.21,3.35-8.09,6.65-2.92,3.11,5.27-3.61,9.31-6,4.46Z"/><path fill="#5c72ae" d="M207.12,253.64c1.43.06,2.71.94,4,1.58,2.71,1.12,5,1.12,7.76,1.75,3.13.78,5.66,2.75,8.93,3.31,1.71.31,3.41.06,5.13.56-1.48-3.3-10.18-5.7-13.48-7.2-3.85-1.69-8.86-4.76-13.17-2.25a2.84,2.84,0,0,0,1.78,2.53Z" opacity=".6"/><path fill="#485aa0" d="M245.59,189.79c1.24-.38,1.71-2.46,3.57-2.78,1.34-.11,4.17.73,5.61,1,3.78,1,4.51,6.34,3.2,9.78s-6.1,5-9.37,3.55c-1.49-.63-6.41-5.9-2.76-6.89,1.57,1.65,5.59,5.13,7.42,1.65,2.11-4.15-3.72-4.08-4.66-6.19Z"/><path fill="#f5f5f5" d="M76.23,155.37c3,7,6.59,13.81,9.64,21a4.9,4.9,0,0,0-2.81-2.15c1.31,3.8,2.52,7.95,4.5,11.53-.17-.94-1.44-2.18-2.18-3.12.14.69.27,1.5.42,2.21a19.74,19.74,0,0,0-1.34-2.64c0,.38.06.94.06,1.44a7.32,7.32,0,0,1-1.35-2.74,5.63,5.63,0,0,0,.52,2c-2.56-3.1-4-7.31-6.85-10.12.22,1.47,1.44,2.94,1.67,4.42-2.68-3.61-3.38-8.09-5.19-12.17-1.26-3-4-7.27-4.15-10.37.25,1.31,1.12,2.08,1.8,3.1-.36-3.66-2.7-8.68-4.22-12.06,1.74,2.54,2.33,5.56,4.23,7.87a7.54,7.54,0,0,1-.93-4.6,16.71,16.71,0,0,0,1.9,3.34,9.09,9.09,0,0,0-.84-3.83c.51,1.34,3.85,7.38,4.83,7.07Z" opacity=".7"/><path fill="#fff" d="M39.36,176.78c-4.26-12.59-8-25.14-11.39-37.59A204.72,204.72,0,0,1,22.39,107c-.75,2.6-1.56,5.06-2.14,7.63a20.82,20.82,0,0,1,.89,3.27c.5,2,.41,4.25.82,6.18s1.48,4.15,1.93,6.26c.95,4.71,2.39,10.44,2.34,15.4,0,6.29.48,11.22,3,17.09,4,9.31,5.95,20.46,11.9,29a3.21,3.21,0,0,1-.46-2c.77,1.34,1.64,2.75,2.54,4.05,0-1.42-1-2.82-1-4,1.36,2.71,2.39,5.49,4.27,7.78C44.09,190.67,41.7,183.63,39.36,176.78Z" opacity=".7"/><g opacity=".7"><path fill="#fff" d="M162.64,26.13c-.28-.07-.19-.35-.44-.21-1.87,3.09-4.95,10.65-3,14.24-1.27-2.15-.34-4.78-1.15-7-.36-1.65-1.64-3.79-2.43-5.59a8.82,8.82,0,0,1,1.1,1.73,13.73,13.73,0,0,1-1.31-3.58,16.13,16.13,0,0,1,2.68,0c.92.14,1.29,1.23,2.47.42.08.07.36.25.51.14Z"/><path fill="#fff" d="M197.78,31.89c-1.25-.34-8.45-.06-4.12-3.33,3.12-2.36,4.21.87,4.76,3Z"/><path fill="#fff" d="M173.47,121.19c1.76,2.5,3.81,6,4.41,9,.18,1.27-.51,1.94.39,3.49,1.06,1.65,2.74,2.88,3.32,4.64-.92-1.13-2.26-1.45-3.35-2.64-1.06-1.51-1.8-3.37-2.82-4.92a22.63,22.63,0,0,1-3.84-9.46,1.31,1.31,0,0,1,1,0Z"/><path fill="#fff" d="M170.69,48.6c-1.81,4.49-.44,11.21-.26,16,.22,3.86-.1,9.53,1.92,12.83a40.42,40.42,0,0,1-3.22-14.87c-.07-2.68-.35-5.42-.35-8,.09-1.65,1.61-5.28.24-6.37Z"/><path fill="#fff" d="M117.66,88.11c2.12,2.18,2.55,6.62,3.36,9.36,1.07,3.72.72,7.55,2.6,11.21,1.68,3.55,3.78,6.71,5.51,9.95,1.27,2.28,1.71,4.74,3.15,7s3.29,4,4,6.3c-.37,0-.71.48-1.19.52,1.69,1.86,2.69,4.89,4.21,7a65.94,65.94,0,0,1,5.38,9.27c2.79,5.7,7,10.52,9,16.53-1.87-1.72-4.25-3-6.21-4.82a4,4,0,0,0-.17,1.55c-1.08-.56-1.62-2-2.26-3.09a.82.82,0,0,1,0,.14c-2-3.44-1.69-7.28-3.64-10.47-1.31-2.08-2.84-5.53-5.35-5.91a17,17,0,0,0,2.71,10.15c0,.12-.07.12-.2.28a27.79,27.79,0,0,1-6.44-6.07,24,24,0,0,0-6.93-5.07c-1.12-.52-2.45-1.19-3.6-1.68s-1.88,0-3.09-.14-7.66-1.94-4.61-3.77a2.3,2.3,0,0,1,0-1.15,2.61,2.61,0,0,0,2.61.34c-.38-.52-.49-1.4-.77-1.82.61.1,1.14-.07,1.88.56a2.65,2.65,0,0,1,.16-.49c.65.18,1.44-.11,1.74.14,1,.38,1,1.47,1.62,1.89,1.21.85,2.7,1,3.9,1.8a73,73,0,0,1,7.88,5.66c-.18-3.44-3.61-6.43-5-9.46-1-2.39-2.53-3.2-4.21-5-1.5-1.8-2.33-4-3.52-6.12a87.91,87.91,0,0,0-5.8-9.42c-1.27-1.9-1-3.07-1.32-5-.32-1.62-1.67-3.44-1-5.06,1.85.49,2.46,4.75,3,6.22.54,2.47,1.87,3.73,2.92,5.77.82,1.65,1.23,3.94,2.39,5.37.79.89,1.79,1,2.67,1.8s1.37,2,2.37,2.85c.65-1,.19-2.71.08-3.87,3.65,1.16,3.93,7.63,7,8.44-2.5-7-7.35-12.27-10.12-19.59-1.19-3.19-3.56-7-4.08-10.4a22.54,22.54,0,0,0-1.29-5.38,16.4,16.4,0,0,1-.92-4.85,4.31,4.31,0,0,1,.24-1.33Z"/><path fill="#fff" d="M116.76,151.5c-.93.78,2.31,5,2.64,6.08,1.09-.06,2.25,2.85,2.75,3.8,2.15-1.62-4-9-5.73-9.84Z"/><path fill="#fff" d="M112.28,152.73c.07,2.15,2.36,5.42,3.53,7.25s2.45,3.8,2.72,6c.82,5,5.24,8.61,8.29,12.59a3.66,3.66,0,0,1-.56-.56c.81,1.72,2.12,3.12,3,4.92.37.84.88,3.3,1.29,3.48-.92-.21-1.94-2.77-2.61-3.83a14.64,14.64,0,0,0-2.58-3c-1.27-1.23-2.17-2.6-3.33-3.9a8.33,8.33,0,0,1-2-3.55c-1-2.78-2.7-4.68-4-7.31-1.49-3-3.89-5.84-5-9.07-.42-1.52.25-2.57,0-3.94Z"/><path fill="#fff" d="M147.54,165.35c-1.06,1.55,3.18,5.28,2.36,7.21-1.81-.53-2.81-3.23-3.73-4.85-.19-.46-1.13-2.11-.86-2.56.42-.75,1.78,0,2.23.48Z"/><path fill="#fff" d="M164.42,187.71c1.83,2.74,4.29,5,5.83,7.88.57,1.09,1.17,2.74,2.52,2.85a5.19,5.19,0,0,0-.42-1.3c.19.13.82.46,1,.84,1-2.25,2.12.94,2.49,1.87-.86.63-1.55,1.47-.93,2.34-.34.15-.67.46-1,.4a4.56,4.56,0,0,0,1.23,2.77c.82-2.24,2.75,1.69,3.15,2.89-3.3,1.54-2.92-.81-4.63-2.95-.63-1-1.37-1.62-2.06-2.68-.5-1-.74-2.67-1.19-3.34-.51-1.09-1.77-1.4-2.52-2.64-.58-1.3-.44-2.08-1.62-3.12a11,11,0,0,0-1.25-1.34c-.36-.67-.46-1.09-.71-1.62-.74-.95-1.4-1.33-1.58-2.49l1.08-1Z"/><path fill="#fff" d="M156.62,195.06c.63,1.65,3.95,2.29,5.3,3.06.53-1.61-3.69-3.34-4.92-2.85-.25-.74-.58-.46-.93-.77Z"/><path fill="#fff" d="M164.24,198.76c0,1.33,1.86,2.14,2.6,3.15.91,1.34,1.09,2.08,2.75,2.15.22-2.11-3.21-5.42-5.2-5.2Z"/><path fill="#fff" d="M104.9,101.33c.65,1.37,3,4.4,1.22,5.7a7.85,7.85,0,0,1-2.65-6.54c.14-.11,0-.35,1-.28a4,4,0,0,1,.2.81Z"/></g><g opacity=".7"><path fill="#fff" d="M163,207.23c3,1.82,6,5.7,8.31,8.29,2.14,2.43,3.65,5.88,6.85,7-.14-3.55-4.37-6.65-6.84-9.08-1.75-1.72-4.78-5.59-7-6.5Z"/><path fill="#b0d7f3" d="M184.58,229a72.16,72.16,0,0,1,8.56,7.86,14.53,14.53,0,0,0,4.16,2.92c1.43.68,3.57,1,4.4,2.19-.85-2.22-2.15-2.4-3.83-3.31a28.23,28.23,0,0,1-4.77-3.76c-2.27-1.72-5.49-5.42-8.12-6.08Z"/><path fill="#b0d7f3" d="M201.63,236.48c.07-.18.2-.25.18-.56A42.26,42.26,0,0,0,214.69,247a19.54,19.54,0,0,0-2.56-5c.18-.07.26.14.44.08a8.59,8.59,0,0,0-1-1.8c-3,1.4-7-3.93-10.22-4.46Z"/></g><path fill="#fff" d="M54.69,136c1.27,1.2,3,5.14,1,6.15a8.52,8.52,0,0,1-2.56-6.4c.19-.2.51-.28.51-.38Z" opacity=".7"/><g mask="url(#mask-2)"><path fill="url(#radial-gradient-3)" d="M291.55,150.1A138.07,138.07,0,1,1,153.47,12,138.06,138.06,0,0,1,291.55,150.1Z" opacity=".5" style="mix-blend-mode:multiply"/></g></g></g></svg>