<svg xmlns="http://www.w3.org/2000/svg" xmlns:xlink="http://www.w3.org/1999/xlink" id="Layer_1" x="0" y="0" version="1.1" viewBox="0 0 215.24 91.73" xml:space="preserve" style="enable-background:new 0 0 215.24 91.73"><style type="text/css">.st0{fill:#fff}</style><path d="M172.65,22.55c1.69-0.01,3.08,1.35,3.09,3.04c0.01,1.69-1.35,3.08-3.04,3.1c-1.69,0.01-3.08-1.36-3.09-3.04	C169.6,23.95,170.97,22.57,172.65,22.55z" class="st0"/><path d="M177.26,19.49c0.82,0,1.51,0.67,1.53,1.49c0.02,0.85-0.68,1.57-1.52,1.57c-0.84,0-1.55-0.72-1.53-1.57	C175.76,20.17,176.45,19.49,177.26,19.49z" class="st0"/><path d="M182.68,36.54c0.82,0,1.51,0.67,1.53,1.49c0.02,0.85-0.68,1.57-1.52,1.57c-0.84,0-1.55-0.72-1.53-1.57	C181.18,37.21,181.87,36.54,182.68,36.54z" class="st0"/><g><path d="M19.96,63.88v15.78h-1.76V66.6l-2.16,13.05h-1.85L12.03,66.6v13.05h-1.71V63.88h2.84l2.01,12.44l2.01-12.44 H19.96z" class="st0"/><path d="M29.02,79.65h-1.8V63.88h1.8V79.65z" class="st0"/><path d="M42.52,74.56v2.3c0,1.96-0.97,2.93-2.93,2.93h-0.5c-1.94,0-2.88-0.97-2.88-2.88v-3.31h1.76v3.38 c0,0.81,0.38,1.19,1.19,1.19h0.36c0.81,0,1.19-0.38,1.19-1.19V74.6c0-0.79-0.27-1.13-0.79-1.51l-2.21-1.6 c-1.17-0.83-1.51-1.65-1.51-2.93v-1.89c0-1.96,0.97-2.93,2.93-2.93h0.45c1.94,0,2.88,0.97,2.88,2.88v2.84h-1.76v-2.91 c0-0.81-0.38-1.19-1.19-1.19h-0.32c-0.81,0-1.19,0.38-1.19,1.19v1.98c0,0.79,0.29,1.13,0.81,1.51l2.19,1.58 C42.16,72.46,42.52,73.21,42.52,74.56z" class="st0"/><path d="M55.89,74.56v2.3c0,1.96-0.97,2.93-2.93,2.93h-0.5c-1.94,0-2.88-0.97-2.88-2.88v-3.31h1.76v3.38 c0,0.81,0.38,1.19,1.19,1.19h0.36c0.81,0,1.19-0.38,1.19-1.19V74.6c0-0.79-0.27-1.13-0.79-1.51l-2.21-1.6 c-1.17-0.83-1.51-1.65-1.51-2.93v-1.89c0-1.96,0.97-2.93,2.93-2.93h0.45c1.94,0,2.88,0.97,2.88,2.88v2.84h-1.76v-2.91 c0-0.81-0.38-1.19-1.19-1.19h-0.32c-0.81,0-1.19,0.38-1.19,1.19v1.98c0,0.79,0.29,1.13,0.81,1.51l2.19,1.58 C55.52,72.46,55.89,73.21,55.89,74.56z" class="st0"/><path d="M64.83,79.65h-1.8V63.88h1.8V79.65z" class="st0"/><path d="M75.65,79.79h-0.68c-1.96,0-2.93-0.97-2.93-2.93V66.67c0-1.96,0.97-2.93,2.93-2.93h0.68 c1.96,0,2.93,0.97,2.93,2.93v10.19C78.58,78.82,77.61,79.79,75.65,79.79z M75.58,65.39h-0.54c-0.81,0-1.19,0.38-1.19,1.19v10.37 c0,0.81,0.38,1.19,1.19,1.19h0.54c0.81,0,1.19-0.38,1.19-1.19V66.58C76.78,65.77,76.39,65.39,75.58,65.39z" class="st0"/><path d="M87.48,67.3v12.35h-1.71V63.88h2.48l2.61,11.38V63.88h1.71v15.78h-2.25L87.48,67.3z" class="st0"/><path d="M108.03,63.88h2.97c2.37,0,3.49,1.13,3.49,3.49v8.79c0,2.37-1.13,3.49-3.49,3.49h-2.97V63.88z M109.84,78.01 h1.08c1.22,0,1.78-0.61,1.78-1.83v-8.83c0-1.22-0.56-1.83-1.78-1.83h-1.08V78.01z" class="st0"/><path d="M126.65,63.88v1.67h-3.15v5.23h3.04v1.65h-3.04v5.57h3.2v1.67h-5V63.88H126.65z" class="st0"/><path d="M139.94,74.56v2.3c0,1.96-0.97,2.93-2.93,2.93h-0.5c-1.94,0-2.88-0.97-2.88-2.88v-3.31h1.76v3.38 c0,0.81,0.38,1.19,1.2,1.19h0.36c0.81,0,1.2-0.38,1.2-1.19V74.6c0-0.79-0.27-1.13-0.79-1.51l-2.21-1.6 c-1.17-0.83-1.51-1.65-1.51-2.93v-1.89c0-1.96,0.97-2.93,2.93-2.93h0.45c1.94,0,2.88,0.97,2.88,2.88v2.84h-1.76v-2.91 c0-0.81-0.38-1.19-1.2-1.19h-0.31c-0.81,0-1.2,0.38-1.2,1.19v1.98c0,0.79,0.29,1.13,0.81,1.51l2.19,1.58 C139.58,72.46,139.94,73.21,139.94,74.56z" class="st0"/><path d="M148.89,79.65h-1.8V63.88h1.8V79.65z" class="st0"/><path d="M159.41,72.91v-1.65h3.22v5.59c0,1.96-0.97,2.93-2.93,2.93h-0.68c-1.96,0-2.93-0.97-2.93-2.93V66.67 c0-1.96,0.97-2.93,2.93-2.93h0.68c1.94,0,2.88,0.97,2.88,2.88v2.16h-1.76v-2.21c0-0.81-0.38-1.19-1.2-1.19h-0.54 c-0.81,0-1.19,0.38-1.19,1.19v10.37c0,0.81,0.38,1.19,1.19,1.19h0.59c0.81,0,1.2-0.38,1.2-1.19v-4.03H159.41z" class="st0"/><path d="M171.49,67.3v12.35h-1.71V63.88h2.48l2.61,11.38V63.88h1.71v15.78h-2.25L171.49,67.3z" class="st0"/><path d="M188.78,63.88v1.67h-3.15v5.23h3.04v1.65h-3.04v5.57h3.2v1.67h-5V63.88H188.78z" class="st0"/><path d="M202.14,74.33v5.32h-1.8V74.4c0-0.95-0.43-1.38-1.38-1.38h-1.33v6.63h-1.8V63.88h3.36 c1.96,0,2.93,0.97,2.93,2.93v2.93c0,1.42-0.5,2.12-1.4,2.48C201.71,72.49,202.14,73.12,202.14,74.33z M199.12,65.52h-1.49v5.9h1.35 c0.9,0,1.33-0.43,1.33-1.33v-3.38C200.32,65.9,199.93,65.52,199.12,65.52z" class="st0"/></g><g><path d="M203.62,57.91H8.63c-0.31,0-0.57-0.25-0.57-0.57c0-0.31,0.25-0.57,0.57-0.57h194.99 c0.31,0,0.57,0.25,0.57,0.57C204.19,57.65,203.94,57.91,203.62,57.91z" class="st0"/></g><g><g><path d="M16.19,10.54h10.03l7.34,23.48l7.34-23.48h9.68l5.04,39.18h-8.04l-3.46-27.57l-8.62,27.57h-3.83l-8.85-27.81 l-3.27,27.81h-8.18L16.19,10.54z" class="st0"/><path d="M60.5,30.12c0-5.79,1.91-10.57,5.74-14.34c3.83-3.77,8.37-5.65,13.62-5.65c5.81,0,10.61,1.89,14.41,5.68 c3.8,3.79,5.7,8.58,5.7,14.37c0,5.75-1.88,10.52-5.64,14.32c-3.76,3.8-8.49,5.7-14.2,5.7c-5.71,0-10.41-1.89-14.1-5.67 C62.34,40.75,60.5,35.94,60.5,30.12z M80.25,17.94c-3.28-0.06-5.93,1.07-7.94,3.4c-2.01,2.33-3.01,5.33-3.01,9.01 c0,3.48,1.02,6.37,3.07,8.65c2.05,2.29,4.63,3.43,7.76,3.43c3.28,0,5.93-1.13,7.95-3.39c2.02-2.26,3.03-5.24,3.03-8.94 c0-3.64-0.99-6.56-2.97-8.77C86.16,19.13,83.53,18,80.25,17.94z" class="st0"/><path d="M107.19,10.54h8.38v30.73h11.55v8.44h-19.93V10.54z" class="st0"/><path d="M128.59,10.54h26.35v8.33h-8.98v30.85h-8.44V18.87h-8.92V10.54z" class="st0"/></g></g><path d="M206.9,16.2c-0.27-1.4-1.22-2.63-2.62-3.38c-2.44-1.3-5.96-1.15-10.47,0.42c-3.83-3.45-8.9-5.56-14.46-5.56	c-11.93,0-21.63,9.7-21.63,21.63c0,1.88,1.53,3.41,3.41,3.41s3.41-1.53,3.41-3.41c0-8.16,6.64-14.81,14.8-14.81	c6.75,0,12.46,4.55,14.23,10.74c-3.54,1.95-8.07,3.99-13.63,5.87c-7.01,2.36-13.82,3.83-19.19,4.13c-5.87,0.33-7.51-0.88-7.62-1.22	c-0.06-0.19,0.07-1.01,1.47-2.46c0.76-0.79,0.73-2.05-0.06-2.81c-0.79-0.76-2.05-0.73-2.81,0.06c-2.24,2.33-3.03,4.52-2.37,6.49	c0.89,2.65,4.08,3.99,9.49,3.99c0.68,0,1.39-0.02,2.13-0.06c5.71-0.32,12.9-1.86,20.23-4.33c4.46-1.5,8.96-3.38,12.93-5.45	c-0.07,8.11-6.68,14.68-14.8,14.68c-3.34,0-6.49-1.08-9.11-3.13c-1.48-1.16-3.63-0.9-4.79,0.59c-1.16,1.48-0.9,3.63,0.59,4.79	c3.83,3,8.43,4.58,13.31,4.58c11.93,0,21.63-9.7,21.63-21.63c0-1.3-0.12-2.58-0.34-3.81C204.87,22.43,207.46,19.18,206.9,16.2z M199.48,21.42c-0.69-1.76-1.61-3.42-2.72-4.92c3.58-0.97,5.18-0.41,5.65-0.15c0.48,0.25,0.56,0.52,0.58,0.6	C203.15,17.8,201.99,19.43,199.48,21.42z" class="st0"/></svg>