<svg xmlns="http://www.w3.org/2000/svg" xmlns:vectornator="http://vectornator.io" xmlns:xlink="http://www.w3.org/1999/xlink" style="fill-rule:evenodd;clip-rule:evenodd;stroke-linecap:round;stroke-linejoin:round" version="1.1" viewBox="0 0 215.24 91.73" xml:space="preserve"><metadata><vectornator:setting key="DynamicGuides" value="1"/><vectornator:setting key="Units" value="Points"/><vectornator:setting key="RulersVisible" value="1"/><vectornator:setting key="SnapToGuides" value="1"/><vectornator:setting key="GridSpacing" value="36"/></metadata><g id="Untitled" vectornator:layerName="Untitled"><g opacity="1"><path fill="#fff" d="M27.4991+17.455C29.1891+17.445+30.5791+18.805+30.5891+20.495C30.5991+22.185+29.2391+23.575+27.5491+23.595C25.8591+23.605+24.4691+22.235+24.4591+20.555C24.4491+18.855+25.8191+17.475+27.4991+17.455Z" opacity="1"/><path fill="#fff" d="M32.1091+14.395C32.9291+14.395+33.6191+15.065+33.6391+15.885C33.6591+16.735+32.9591+17.455+32.1191+17.455C31.2791+17.455+30.5691+16.735+30.5891+15.885C30.6091+15.075+31.2991+14.395+32.1091+14.395Z" opacity="1"/><path fill="#fff" d="M37.5291+31.445C38.3491+31.445+39.0391+32.115+39.0591+32.935C39.0791+33.785+38.3791+34.505+37.5391+34.505C36.6991+34.505+35.9891+33.785+36.0091+32.935C36.0291+32.115+36.7191+31.445+37.5291+31.445Z" opacity="1"/><path fill="#fff" d="M61.7491+11.105C61.4791+9.705+60.5291+8.475+59.1291+7.725C56.6891+6.425+53.1691+6.575+48.6591+8.145C44.8291+4.695+39.7591+2.585+34.1991+2.585C22.2691+2.585+12.5691+12.285+12.5691+24.215C12.5691+26.095+14.0991+27.625+15.9791+27.625C17.8591+27.625+19.3891+26.095+19.3891+24.215C19.3891+16.055+26.0291+9.405+34.1891+9.405C40.9391+9.405+46.6491+13.955+48.4191+20.145C44.8791+22.095+40.3491+24.135+34.7891+26.015C27.7791+28.375+20.9691+29.845+15.5991+30.145C9.7291+30.475+8.0891+29.265+7.9791+28.925C7.9191+28.735+8.0491+27.915+9.4491+26.465C10.2091+25.675+10.1791+24.415+9.3891+23.655C8.5991+22.895+7.3391+22.925+6.5791+23.715C4.3391+26.045+3.5491+28.235+4.2091+30.205C5.0991+32.855+8.2891+34.195+13.6991+34.195C14.3791+34.195+15.0891+34.175+15.8291+34.135C21.5391+33.815+28.7291+32.275+36.0591+29.805C40.5191+28.305+45.0191+26.425+48.9891+24.355C48.9191+32.465+42.3091+39.035+34.1891+39.035C30.8491+39.035+27.6991+37.955+25.0791+35.905C23.5991+34.745+21.4491+35.005+20.2891+36.495C19.1291+37.975+19.3891+40.125+20.8791+41.285C24.7091+44.285+29.3091+45.865+34.1891+45.865C46.1191+45.865+55.8191+36.165+55.8191+24.235C55.8191+22.935+55.6991+21.655+55.4791+20.425C59.7191+17.335+62.3091+14.085+61.7491+11.105ZM54.3291+16.325C53.6391+14.565+52.7191+12.905+51.6091+11.405C55.1891+10.435+56.7891+10.995+57.2591+11.255C57.7391+11.505+57.8191+11.775+57.8391+11.855C57.9991+12.705+56.8391+14.335+54.3291+16.325Z" opacity="1"/></g></g></svg>