<svg xmlns="http://www.w3.org/2000/svg" xmlns:xlink="http://www.w3.org/1999/xlink" id="Layer_1" x="0" y="0" version="1.1" viewBox="0 0 51 28" xml:space="preserve" style="enable-background:new 0 0 51 28"><style type="text/css">.st0{fill:#fff}</style><path d="M42.18,12.32H7.2c-0.08,0-0.15,0.01-0.23,0.02l7.67-7.67c0.59-0.59,0.59-1.54,0-2.12s-1.54-0.59-2.12,0	L3.88,11.2c-1.44,1.45-1.44,3.8,0,5.24l8.65,8.65c0.29,0.29,0.68,0.44,1.06,0.44s0.77-0.15,1.06-0.44c0.59-0.59,0.59-1.54,0-2.12	L6.97,15.3c0.07,0.01,0.15,0.02,0.23,0.02h34.98c2.27,0,4.12,1.85,4.12,4.12s-1.85,4.12-4.12,4.12H27.5c-0.83,0-1.5,0.67-1.5,1.5	s0.67,1.5,1.5,1.5h14.68c3.92,0,7.12-3.19,7.12-7.12S46.1,12.32,42.18,12.32z" class="st0"/></svg>