<svg xmlns="http://www.w3.org/2000/svg" xmlns:xlink="http://www.w3.org/1999/xlink" id="Layer_1" x="0" y="0" version="1.1" viewBox="0 0 38 28" xml:space="preserve" style="enable-background:new 0 0 38 28"><style type="text/css">.st0{fill:#fff}</style><path d="M34.89,13.5c0-0.1-0.01-0.21-0.03-0.3c-0.07-0.84-0.41-1.67-1.05-2.31l-8.65-8.65c-0.59-0.59-1.54-0.59-2.12,0	c-0.59,0.59-0.59,1.54,0,2.12L30.68,12H4.8c-0.83,0-1.5,0.67-1.5,1.5S3.97,15,4.8,15h25.88l-7.65,7.65c-0.59,0.59-0.59,1.54,0,2.12	c0.29,0.29,0.68,0.44,1.06,0.44s0.77-0.15,1.06-0.44l8.65-8.65c0.66-0.66,1-1.51,1.06-2.38C34.88,13.66,34.89,13.58,34.89,13.5z" class="st0"/></svg>