<?xml version="1.0" encoding="utf-8"?>
<!-- Generator: Adobe Illustrator 24.1.1, SVG Export Plug-In . SVG Version: 6.00 Build 0)  -->
<svg version="1.1" id="Layer_1" xmlns="http://www.w3.org/2000/svg" xmlns:xlink="http://www.w3.org/1999/xlink" x="0px" y="0px"
	 viewBox="0 0 25 35" style="enable-background:new 0 0 25 35;" xml:space="preserve">
<style type="text/css">
	.st0{fill:#FFFFFF;}
</style>
<path class="st0" d="M12.7,1.96c-0.1,0-0.21,0.01-0.3,0.03c-0.84,0.07-1.67,0.41-2.31,1.05L1.43,11.7c-0.59,0.59-0.59,1.54,0,2.12
	c0.59,0.59,1.54,0.59,2.12,0l7.65-7.65v25.88c0,0.83,0.67,1.5,1.5,1.5s1.5-0.67,1.5-1.5V6.17l7.65,7.65c0.59,0.59,1.54,0.59,2.12,0
	c0.29-0.29,0.44-0.68,0.44-1.06s-0.15-0.77-0.44-1.06l-8.65-8.65c-0.66-0.66-1.51-1-2.38-1.06C12.86,1.97,12.78,1.96,12.7,1.96z"/>
</svg>
