<?xml version="1.0" encoding="utf-8"?>
<!-- Generator: Adobe Illustrator 24.1.1, SVG Export Plug-In . SVG Version: 6.00 Build 0)  -->
<svg version="1.1" id="Layer_1" xmlns="http://www.w3.org/2000/svg" xmlns:xlink="http://www.w3.org/1999/xlink" x="0px" y="0px"
	 viewBox="0 0 233 150" style="enable-background:new 0 0 233 150;" xml:space="preserve">
<style type="text/css">
	.st0{fill:#3A59FA;}
	.st1{fill:#DE912F;}
	.st2{fill:#94FF85;}
</style>
<g>
	<g>
		<path class="st0" d="M92.01,148c-8.79,0-17.39-2.06-21.89-3.35c-5.93-1.69-20.79-8.66-18.43-20.42
			c2.17-10.83,12.32-13.07,16.14-13.91c0.34-0.07,0.63-0.14,0.86-0.2c1.22-0.31,4.66-0.68,10.34-1.31c2.87-0.32,6.23-0.69,10-1.13
			c-9.54-7.59-19.54-16.98-25.18-26.98c-0.36,0.81-0.7,1.61-1.04,2.39c-2.93,6.77-5.24,12.12-10.13,15.17
			c-10.1,6.31-19.23,8.48-27.13,6.43C14.59,101.85,8.94,91.63,6.52,87.26l-0.24-0.43c-2.29-4.12-3.66-16.58,1.75-26.72
			c4.17-7.81,11.49-12.36,21.19-13.17c11.24-0.94,21,4.15,28.21,14.72c3.41,5,5.49,10.07,6.56,13.18c1.48-3.07,3.23-6.33,5.47-9.77
			c10.06-15.47,19.18-27.01,37.18-23.26c17.36,3.62,39.99,12.9,57.64,23.64c6.12,3.73,12.09,6.96,17.88,9.69
			c0.64-0.25,1.31-0.5,2-0.77c3.24-1.24,6.9-2.64,11.37-4.59c8.61-3.77,20.83-4.18,27.83-0.94c2.82,1.3,4.65,3.15,5.31,5.34
			c0.96,3.18,0.21,6.42-2.04,8.87c-3.66,3.98-10.36,5.29-18.39,3.6c-8.23-1.73-16.98-4.75-26.16-9.01
			c-3.64,1.42-6.47,2.67-8.91,4.41c-4.58,3.27-33.06,20.69-57.77,24.43c-7.43,1.13-14.37,2.04-20.51,2.8
			c5.14,3.87,9.92,7.13,13.48,9.57c1.85,1.27,3.45,2.36,4.6,3.19c4.22,3.07,6.31,6.66,6.05,10.39c-0.22,3.08-2.23,7.69-10.59,12.11
			C103.59,147.12,97.76,148,92.01,148z M91.61,109.69c-4.72,0.56-8.88,1.02-12.33,1.4c-5.2,0.57-8.96,0.99-10.04,1.26
			c-0.25,0.06-0.57,0.13-0.93,0.21c-3.74,0.82-12.51,2.76-14.38,12.11c-2,10,11.81,16.33,16.81,17.76c5.6,1.6,24.79,6.34,36.59,0.09
			c5.88-3.11,9.12-6.65,9.37-10.24c0.26-3.66-2.63-6.57-5.11-8.37c-1.12-0.81-2.7-1.9-4.54-3.15
			C103.05,118.02,97.5,114.23,91.61,109.69z M65.04,78.05c5.57,10.87,16.84,21.18,27.23,29.25c6.68-0.8,14.42-1.81,22.78-3.07
			c24.26-3.68,52.27-20.81,56.78-24.03c2.17-1.55,4.55-2.71,7.42-3.89c-5.26-2.56-10.65-5.52-16.16-8.88
			c-17.18-10.45-40.05-19.84-56.91-23.35c-16.6-3.46-24.89,7.05-34.78,22.26C68.7,70.5,66.71,74.42,65.04,78.05z M31.9,49.13
			c-0.82,0-1.65,0.03-2.49,0.1c-9.01,0.75-15.52,4.77-19.35,11.96C5.11,70.47,6.28,82.09,8.3,85.71l0.24,0.43
			c2.27,4.11,7.59,13.72,17.6,16.32c7.26,1.88,15.78-0.19,25.33-6.16c4.28-2.67,6.46-7.73,9.23-14.13c0.59-1.36,1.2-2.78,1.86-4.24
			c-0.55-1.91-2.68-8.61-7.06-15.02C49.23,53.76,41.3,49.13,31.9,49.13z M185.09,76.5c8.27,3.7,16.17,6.34,23.62,7.91
			c7.11,1.5,13.17,0.41,16.22-2.91c1.72-1.87,2.26-4.23,1.53-6.65c-0.58-1.95-2.54-3.2-4.07-3.91c-6.47-2.99-17.86-2.57-25.94,0.96
			C191.99,73.86,188.33,75.26,185.09,76.5z"/>
	</g>
	<g>
		<path class="st0" d="M82.13,44.14c-6.08,0-9.84-0.82-14.26-2.3c-5.35-1.78-15.47-7.07-15.47-14.31c0-5.47,2.85-10.91,8.02-15.3
			c5.28-4.48,12.7-7.54,20.88-8.61c17.79-2.32,31.2,1.89,34.99,10.98c4.18,10.03-0.85,14.89-6.33,18.31
			c-5.76,3.6-14.52,10.16-14.6,10.22c-0.17,0.13-0.37,0.2-0.58,0.22C89.53,43.89,85.48,44.14,82.13,44.14z M94.67,42.22L94.67,42.22
			L94.67,42.22z M90.67,5.29c-2.85,0-5.88,0.2-9.07,0.62c-15.34,2-26.9,11.29-26.9,21.62c0,4.87,7.16,9.88,13.9,12.12
			c6.48,2.16,11.5,2.84,25.64,1.45c1.5-1.12,9.22-6.84,14.51-10.14c5.81-3.63,8.75-7.49,5.42-15.47
			C111.44,8.95,102.74,5.29,90.67,5.29z"/>
	</g>
	<circle class="st1" cx="98.71" cy="76.36" r="5.87"/>
	<circle class="st2" cx="198.56" cy="76.36" r="4.41"/>
</g>
</svg>
