<?xml version="1.0" encoding="utf-8"?>
<!-- Generator: Adobe Illustrator 24.1.1, SVG Export Plug-In . SVG Version: 6.00 Build 0)  -->
<svg version="1.1" id="Layer_1" xmlns="http://www.w3.org/2000/svg" xmlns:xlink="http://www.w3.org/1999/xlink" x="0px" y="0px"
	 viewBox="0 0 150 150" style="enable-background:new 0 0 150 150;" xml:space="preserve">
<style type="text/css">
	.st0{fill:#3A59FA;}
	.st1{fill:#FFFFFF;}
	.st2{fill:#DE912F;}
	.st3{fill:#94FF85;}
</style>
<g>
	<path class="st0" d="M75,147c-39.7,0-72-32.3-72-72S35.3,3,75,3s72,32.3,72,72S114.7,147,75,147z M75,4.93
		C36.36,4.93,4.93,36.36,4.93,75c0,38.64,31.43,70.07,70.07,70.07c38.64,0,70.07-31.43,70.07-70.07
		C145.07,36.36,113.64,4.93,75,4.93z"/>
</g>
<g>
	<path class="st1" d="M10.77,105.77c-0.01,0-0.02,0-0.03,0c-0.21-0.02-0.37-0.2-0.36-0.41c1.6-21.31,12.43-42.88,28.28-56.3
		c12.02-10.18,25.68-14.89,39.51-13.64c14.03,1.28,24.74,7.41,31.83,18.22c0.12,0.18,0.07,0.42-0.11,0.54
		c-0.18,0.12-0.42,0.07-0.54-0.11c-6.96-10.61-17.47-16.62-31.25-17.87c-13.62-1.24-27.09,3.42-38.94,13.46
		C23.47,62.93,12.74,84.3,11.16,105.41C11.14,105.61,10.97,105.77,10.77,105.77z"/>
</g>
<g>
	<path class="st1" d="M60.47,103.82c-10.69,0-19.37-3.78-22.82-11.01c-5.96-12.5,5.94-30.66,26.53-40.48
		c20.59-9.82,42.2-7.64,48.16,4.86c5.96,12.5-5.94,30.66-26.53,40.48C77.13,101.81,68.27,103.82,60.47,103.82z M89.57,46.93
		c-7.68,0-16.45,1.99-25.05,6.09c-20.21,9.64-31.95,27.34-26.17,39.45c5.78,12.12,26.92,14.13,47.13,4.5
		c20.21-9.64,31.95-27.34,26.17-39.45C108.33,50.56,99.94,46.93,89.57,46.93z"/>
</g>
<circle class="st2" cx="75" cy="75" r="7.89"/>
<circle class="st0" cx="14.27" cy="110.31" r="5.02"/>
<circle class="st3" cx="108.29" cy="59.12" r="2.69"/>
</svg>
