<?xml version="1.0" encoding="UTF-8" standalone="no"?> <!-- Created with Vectornator for iOS (http://vectornator.io/) --><!DOCTYPE svg PUBLIC "-//W3C//DTD SVG 1.1//EN" "http://www.w3.org/Graphics/SVG/1.1/DTD/svg11.dtd">
<svg style="fill-rule:evenodd;clip-rule:evenodd;stroke-linecap:round;stroke-linejoin:round;" xmlns:vectornator="http://vectornator.io" xmlns:xlink="http://www.w3.org/1999/xlink" xmlns="http://www.w3.org/2000/svg" xml:space="preserve" version="1.1" viewBox="0 0 12 10">
<metadata>
<vectornator:setting key="RulersVisible" value="1"/>
<vectornator:setting key="Units" value="Pixels"/>
<vectornator:setting key="DynamicGuides" value="1"/>
<vectornator:setting key="CMYKEnabledKey" value="0"/>
<vectornator:setting key="IsolateActiveLayer" value="0"/>
<vectornator:setting key="SnapToGuides" value="1"/>
<vectornator:setting key="GridSpacing" value="25"/>
</metadata>
<defs/>
<g id="Untitled" vectornator:layerName="Untitled">
<g opacity="1">
<path d="M4.97319+3.71393C5.29423+3.71203+5.55829+3.97038+5.56019+4.29143C5.56209+4.61247+5.30373+4.87652+4.98269+4.88032C4.66165+4.88222+4.3976+4.62197+4.3957+4.30283C4.3938+3.97988+4.65405+3.71773+4.97319+3.71393Z" opacity="1" fill="#ffffff"/>
<path d="M5.84893+3.13264C6.00471+3.13264+6.13578+3.25991+6.13958+3.41568C6.14338+3.57716+6.01041+3.71393+5.85083+3.71393C5.69126+3.71393+5.55639+3.57716+5.56019+3.41568C5.56399+3.26181+5.69506+3.13264+5.84893+3.13264Z" opacity="1" fill="#ffffff"/>
<path d="M6.87855+6.37155C7.03432+6.37155+7.1654+6.49883+7.1692+6.6546C7.173+6.81607+7.04002+6.95285+6.88045+6.95285C6.72088+6.95285+6.586+6.81607+6.5898+6.6546C6.5936+6.49883+6.72468+6.37155+6.87855+6.37155Z" opacity="1" fill="#ffffff"/>
<path d="M11.4795+2.50765C11.4282+2.2417+11.2478+2.00804+10.9818+1.86556C10.5183+1.61861+9.84962+1.6471+8.99287+1.94535C8.2653+1.28997+7.30217+0.889139+6.24596+0.889139C3.97967+0.889139+2.137+2.73181+2.137+4.9981C2.137+5.35524+2.42765+5.64588+2.78479+5.64588C3.14192+5.64588+3.43257+5.35524+3.43257+4.9981C3.43257+3.44798+4.69394+2.18471+6.24406+2.18471C7.52633+2.18471+8.61104+3.04905+8.94728+4.22494C8.2748+4.59537+7.41425+4.9829+6.35804+5.34004C5.02638+5.78836+3.73272+6.06761+2.7126+6.1246C1.5975+6.18729+1.28595+5.95743+1.26506+5.89284C1.25366+5.85675+1.27836+5.70097+1.54431+5.42552C1.68868+5.27545+1.68298+5.03609+1.53291+4.89172C1.38284+4.74735+1.14348+4.75304+0.999107+4.90312C0.573583+5.34574+0.42351+5.76176+0.548888+6.136C0.717957+6.63941+1.32395+6.89396+2.35166+6.89396C2.48084+6.89396+2.61572+6.89016+2.75629+6.88256C3.841+6.82177+5.20685+6.52922+6.5993+6.06001C7.44655+5.77506+8.30139+5.41792+9.05556+5.0247C9.04226+6.56532+7.78659+7.81339+6.24406+7.81339C5.60958+7.81339+5.01119+7.60823+4.51347+7.2188C4.23233+6.99844+3.8239+7.04783+3.60354+7.33088C3.38318+7.61203+3.43257+8.02046+3.71562+8.24082C4.44319+8.81071+5.31703+9.11086+6.24406+9.11086C8.51036+9.11086+10.353+7.26819+10.353+5.0019C10.353+4.75494+10.3302+4.51179+10.2884+4.27813C11.0939+3.69114+11.5859+3.07375+11.4795+2.50765ZM10.07+3.49927C9.9389+3.16493+9.76413+2.84959+9.55327+2.56464C10.2333+2.38037+10.5373+2.48675+10.6266+2.53614C10.7178+2.58363+10.733+2.63493+10.7368+2.65012C10.7672+2.81159+10.5468+3.12124+10.07+3.49927Z" opacity="1" fill="#ffffff"/>
</g>
</g>
</svg>
