<svg xmlns="http://www.w3.org/2000/svg" xmlns:xlink="http://www.w3.org/1999/xlink" id="Layer_1" x="0" y="0" version="1.1" viewBox="0 0 150 150" xml:space="preserve" style="enable-background:new 0 0 150 150"><style type="text/css">.st0{fill:#fff}</style><g><g><g><g><path d="M142.47,62.33l-16.73-4.06c-0.93-2.94-2.11-5.79-3.52-8.51l8.58-14.3c0.99-1.65,0.73-3.76-0.63-5.12 l-11.85-11.85c-1.36-1.36-3.47-1.62-5.12-0.63l-14.3,8.58c-2.72-1.41-5.57-2.58-8.51-3.52L86.34,6.2C85.88,4.32,84.2,3,82.27,3 H65.51c-1.93,0-3.62,1.32-4.07,3.2l-4.06,16.73c-2.94,0.93-5.79,2.11-8.51,3.52l-14.3-8.58c-1.65-0.99-3.76-0.73-5.12,0.63 L17.6,30.34c-1.36,1.36-1.62,3.47-0.63,5.12l8.58,14.3c-1.41,2.72-2.59,5.58-3.52,8.53L5.84,62.34 c-1.87,0.47-3.17,2.14-3.17,4.06v16.76c0,1.92,1.31,3.6,3.17,4.06l16.19,4.05c0.94,2.95,2.11,5.8,3.52,8.53l-8.58,14.3 c-0.99,1.65-0.73,3.76,0.63,5.12l11.85,11.85c1.36,1.36,3.47,1.62,5.12,0.63l14.3-8.58c2.72,1.41,5.58,2.59,8.53,3.52 l4.05,16.19c0.47,1.86,2.14,3.17,4.06,3.17h16.76c1.92,0,3.6-1.31,4.06-3.17l4.05-16.19c2.95-0.93,5.8-2.11,8.53-3.52l14.3,8.58 c1.65,0.99,3.76,0.73,5.12-0.63l11.85-11.85c1.36-1.36,1.62-3.47,0.63-5.12l-8.58-14.3c1.41-2.72,2.58-5.57,3.52-8.51 l16.73-4.06c1.88-0.46,3.2-2.14,3.2-4.07V66.4C145.67,64.47,144.34,62.78,142.47,62.33z M137.29,79.86l-15.88,3.85 c-1.49,0.36-2.66,1.51-3.06,2.99c-1.05,3.91-2.59,7.64-4.58,11.09c-0.76,1.32-0.75,2.95,0.03,4.25l8.13,13.56l-7.22,7.22 l-13.55-8.13c-1.31-0.78-2.94-0.8-4.25-0.03c-3.45,2-7.18,3.54-11.09,4.58c-1.47,0.39-2.61,1.55-2.98,3.03L79,137.62H68.78 l-3.84-15.35c-0.37-1.48-1.51-2.64-2.98-3.03c-3.91-1.05-7.64-2.59-11.09-4.58c-1.32-0.76-2.95-0.75-4.25,0.03l-13.55,8.13 l-7.22-7.22l8.13-13.56c0.78-1.31,0.8-2.94,0.03-4.25c-2-3.45-3.54-7.18-4.58-11.09c-0.39-1.47-1.55-2.61-3.03-2.98l-15.35-3.84 V69.67l15.35-3.84c1.48-0.37,2.64-1.51,3.03-2.98c1.05-3.91,2.59-7.64,4.58-11.09c0.76-1.32,0.75-2.95-0.03-4.25l-8.13-13.56 l7.22-7.22l13.56,8.13c1.31,0.78,2.93,0.8,4.25,0.03c3.45-2,7.18-3.54,11.09-4.58c1.48-0.4,2.63-1.57,2.99-3.06l3.85-15.88 h10.17l3.85,15.88c0.36,1.49,1.51,2.66,2.99,3.06c3.91,1.05,7.64,2.59,11.09,4.58c1.32,0.76,2.95,0.75,4.25-0.03l13.56-8.13 l7.22,7.22l-8.13,13.56c-0.78,1.31-0.8,2.93-0.03,4.25c2,3.45,3.54,7.18,4.58,11.09c0.4,1.48,1.57,2.63,3.06,2.99l15.88,3.85 V79.86z" class="st0"/></g></g></g><g><g><g><path d="M73.89,45.45c-16.17,0-29.33,13.16-29.33,29.33s13.16,29.33,29.33,29.33s29.33-13.16,29.33-29.33 S90.06,45.45,73.89,45.45z M73.89,95.73c-11.55,0-20.95-9.4-20.95-20.95s9.4-20.95,20.95-20.95s20.95,9.4,20.95,20.95 S85.44,95.73,73.89,95.73z" class="st0"/></g></g></g></g></svg>