<?xml version="1.0" encoding="utf-8"?>
<!-- Generator: Adobe Illustrator 24.1.1, SVG Export Plug-In . SVG Version: 6.00 Build 0)  -->
<svg version="1.1" id="Layer_1" xmlns="http://www.w3.org/2000/svg" xmlns:xlink="http://www.w3.org/1999/xlink" x="0px" y="0px"
	 viewBox="0 0 43 50" style="enable-background:new 0 0 43 50;" xml:space="preserve">
<style type="text/css">
	.st0{fill:#FFFFFF;}
</style>
<g>
	<g>
		<g>
			<path class="st0" d="M38.65,16.61l2.16-2.16c1.58-1.58,1.58-4.16,0-5.74c-1.58-1.58-4.16-1.58-5.74,0l-2.14,2.14
				c-2.14-1.43-4.57-2.47-7.18-3.01V4.72h1.35c0.75,0,1.35-0.61,1.35-1.35s-0.61-1.35-1.35-1.35c-1.16,0-9.68,0-10.83,0
				c-0.75,0-1.35,0.61-1.35,1.35s0.61,1.35,1.35,1.35h1.35v3.12c-2.61,0.53-5.03,1.57-7.18,3.01L8.32,8.71
				c-1.58-1.58-4.16-1.58-5.74,0c-1.58,1.58-1.58,4.16,0,5.74l2.16,2.16c-2.12,3.22-3.35,7.07-3.35,11.21
				c0,11.25,9.11,20.4,20.31,20.4S42,39.07,42,27.82C42,23.69,40.77,19.83,38.65,16.61z M36.98,10.62c0.53-0.53,1.39-0.53,1.91,0
				c0.53,0.53,0.53,1.39,0,1.91l-1.9,1.9c-0.59-0.68-1.23-1.32-1.91-1.92L36.98,10.62z M20.34,4.72h2.71v2.75
				c-0.45-0.03-0.9-0.05-1.35-0.05s-0.91,0.02-1.35,0.05V4.72z M4.49,12.53c-0.53-0.53-0.53-1.39,0-1.91c0.53-0.53,1.39-0.53,1.91,0
				l1.89,1.89c-0.68,0.6-1.31,1.24-1.91,1.92L4.49,12.53z M21.69,45.52c-9.71,0-17.6-7.94-17.6-17.69c0-9.74,7.88-17.69,17.6-17.69
				c9.7,0,17.6,7.94,17.6,17.69C39.29,37.58,31.4,45.52,21.69,45.52z"/>
		</g>
	</g>
	<g>
		<g>
			<path class="st0" d="M21.69,12.93c-8.21,0-14.89,6.68-14.89,14.89c0,3.98,1.55,7.73,4.36,10.57c2.82,2.85,6.56,4.42,10.53,4.42
				s7.71-1.57,10.53-4.42c2.81-2.84,4.36-6.59,4.36-10.57C36.58,19.61,29.9,12.93,21.69,12.93z M23.04,40.02v-1.28
				c0-0.75-0.61-1.35-1.35-1.35s-1.35,0.61-1.35,1.35v1.28c-5.64-0.63-10.13-5.16-10.76-10.85h1.28c0.75,0,1.35-0.61,1.35-1.35
				s-0.61-1.35-1.35-1.35H9.58c0.63-5.64,5.12-10.13,10.76-10.76v1.28c0,0.75,0.61,1.35,1.35,1.35s1.35-0.61,1.35-1.35v-1.28
				c5.64,0.63,10.13,5.12,10.76,10.76h-1.28c-0.75,0-1.35,0.61-1.35,1.35s0.61,1.34,1.35,1.34h1.28
				C33.18,34.86,28.69,39.39,23.04,40.02z"/>
		</g>
	</g>
	<g>
		<g>
			<path class="st0" d="M27.11,26.47h-4.06v-4.06c0-0.75-0.61-1.35-1.35-1.35s-1.35,0.61-1.35,1.35v5.42c0,0.75,0.61,1.35,1.35,1.35
				h5.42c0.75,0,1.35-0.61,1.35-1.35S27.85,26.47,27.11,26.47z"/>
		</g>
	</g>
</g>
</svg>
