<svg xmlns="http://www.w3.org/2000/svg" xmlns:xlink="http://www.w3.org/1999/xlink" id="Layer_1" x="0" y="0" version="1.1" viewBox="0 0 456 442" xml:space="preserve" style="enable-background:new 0 0 456 442"><style type="text/css">.st0{fill:#fff}</style><g><path d="M285.1,117.8c-33.5,11.2-69.2,34.6-100.5,65.8c-27.8,27.8-34,65-14.1,84.9c5.9,6,13.6,9.6,22.3,11 c-22.8,14.6-45.6,24.1-65.6,26.9C122.4,296.1,112,289,100,289c-6.2,0-11.9,1.9-16.7,5.1c-13.6-17.3-9.7-50.8,10-88 c2.4,0.6,4.9,0.9,7.5,0.9c16.5,0,30-13.5,30-30c0-6.5-2.1-12.4-5.5-17.3c5.4-6.3,11-12.5,17-18.4c38.1-38.1,83.5-63.6,118.7-66.7 c5.5-0.5,9.6-5.3,9.1-10.8c-0.5-5.5-5.3-9.6-10.8-9.1c-40.2,3.5-89.2,30.6-131,72.5c-6.8,6.8-13.2,13.8-19.3,21 c-2.6-0.7-5.3-1.1-8-1.1c-16.5,0-30,13.5-30,30c0,6.7,2.2,12.8,5.9,17.8c-11.9,21.9-19.1,43.4-21,62.4 c-2.2,22.4,3.2,40.8,15.5,53.4c-0.8,2.7-1.2,5.5-1.2,8.4c0,16.5,13.5,30,30,30c14,0,25.8-9.7,29.1-22.7 c39.3-5.1,85.9-31.6,126.3-72c27.8-27.8,34-65,14.1-84.9c-6-6-13.6-9.7-22.4-11c14.9-9.5,29.9-16.9,44.3-21.8 c27.9-9.3,50.8-7.7,62.9,4.4c19.5,19.5,11.2,64.7-20.1,111.4c-4.2-2.3-9.1-3.6-14.3-3.6c-16.5,0-30,13.5-30,30 c0,7.1,2.5,13.7,6.7,18.9c-22.9,22.6-48.1,40.8-73,52.5c-23.6,11.1-45.6,15.5-61.9,12.6c-5.4-1-10.6,2.6-11.6,8.1 s2.6,10.6,8.1,11.6c4.5,0.8,9.2,1.2,14.1,1.2c17.8,0,38.1-5.2,59.8-15.4c27.4-12.8,55-32.7,79.7-57.5c0.8-0.8,1.6-1.6,2.4-2.5 c1.8,0.4,3.7,0.5,5.6,0.5c16.5,0,30-13.5,30-30c0-3.9-0.7-7.5-2.1-10.9c18.3-26.3,30.4-52.9,34.9-76.9c5.1-27.4,0.2-49.5-14.4-64.1 C350.6,109.1,321,105.8,285.1,117.8L285.1,117.8z M100.8,167c5.5,0,10,4.5,10,10s-4.5,10-10,10s-10-4.5-10-10 C90.8,171.5,95.3,167,100.8,167z M100,329c-5.5,0-10-4.5-10-10s4.5-10,10-10s10,4.5,10,10S105.5,329,100,329z M232,178.8 c2.1-0.4,4.8-0.8,7.7-0.8c5.3,0,11.2,1.2,15.7,5.6c11.5,11.5,5,37.4-14.1,56.6c-10,10-21.7,16.7-33.2,19 c-5.8,1.2-16.5,2.1-23.4-4.8c-11.5-11.5-5-37.4,14.1-56.6C208.7,187.8,220.5,181.1,232,178.8L232,178.8z M320,289 c-5.5,0-10-4.5-10-10s4.5-10,10-10s10,4.5,10,10S325.5,289,320,289z" class="st0"/><path d="M231.1,230.1c9.2-9.2,11.7-21.6,5.5-27.7c-6.1-6.1-18.5-3.6-27.7,5.5s-11.7,21.6-5.5,27.7 C209.5,241.8,221.9,239.3,231.1,230.1L231.1,230.1z" class="st0"/><path d="M450,199c0-13.1-8.5-24.3-20.2-28.3c-1.9-44.8-18.4-84-48-113.5c-30-30-70-46.6-115.8-48c-42.3-1.3-87.1,11-126.9,34.8 c-5.2-4.3-11.9-6.9-19.1-6.9c-16.5,0-30,13.5-30,30c0,4.3,0.9,8.5,2.6,12.2c-2.1,2-4.3,4-6.3,6.1c-43,43-69.7,97.2-75.2,152.6 c-5.6,56.2,11.1,107,47.1,143C89.6,412.3,132.3,429,180,429c6.9,0,14-0.4,21.1-1.1c55.4-5.5,109.6-32.3,152.6-75.2 c35.5-35.5,59.8-78.3,70.5-124C438.7,226.7,450,214.1,450,199L450,199z M420,209c-5.5,0-10-4.5-10-10s4.5-10,10-10s10,4.5,10,10 C430,204.5,425.5,209,420,209z M120,57c5.5,0,10,4.5,10,10s-4.5,10-10,10s-10-4.5-10-10S114.5,57,120,57z M339.6,338.6 c-81.5,81.5-201.4,94.1-267.3,28.1C40.6,335,25.9,290,30.9,239.9C36,189,60.7,139.1,100.4,99.4c1.9-1.9,3.9-3.8,5.9-5.7 c4.1,2.1,8.7,3.3,13.6,3.3c16.5,0,30-13.5,30-30c0-2-0.2-4-0.6-5.9c36.5-21.9,77.5-33.2,116-32c40.6,1.3,76,15.9,102.3,42.2 c25.8,25.8,40.2,60.1,42.1,99.5C398.3,175,390,186,390,199c0,10.9,5.8,20.5,14.6,25.7C394.7,266.1,371.8,306.3,339.6,338.6 L339.6,338.6z" class="st0"/></g></svg>