<svg xmlns="http://www.w3.org/2000/svg" xmlns:xlink="http://www.w3.org/1999/xlink" id="Layer_1" x="0" y="0" version="1.1" viewBox="0 0 67 50" xml:space="preserve" style="enable-background:new 0 0 67 50"><style type="text/css">.st0{fill:#fff}</style><path d="M65.72,27.5c-0.11-0.51-0.6-0.83-1.11-0.72c-0.12,0.02-11.32,2.4-19.69,5.75c-0.24-0.63-0.52-1.24-0.87-1.83	c-0.26-0.45-0.84-0.6-1.28-0.34c-0.45,0.26-0.6,0.84-0.34,1.28c0.57,0.96,0.99,2.35,1,2.39c0.25,0.9,0.38,1.81,0.38,2.7	c0,5.57-4.53,10.1-10.1,10.1c-2.23,0-4.34-0.72-6.09-2.05c0.37-0.18,0.73-0.39,1.07-0.62c0.43-0.29,0.54-0.87,0.25-1.3	c-0.29-0.43-0.87-0.54-1.3-0.25c-1.17,0.79-2.54,1.21-3.96,1.21c-3.91,0-7.09-3.18-7.09-7.09c0-0.52-0.42-0.94-0.94-0.94	c-0.52,0-0.94,0.42-0.94,0.94c0,0.61,0.06,1.22,0.18,1.8c-2.93-0.58-5.61-2.08-7.65-4.32c-0.25-0.27-0.48-0.56-0.71-0.85	c0.82-0.26,1.31-0.41,1.32-0.41c0.5-0.15,0.78-0.67,0.64-1.17c-0.15-0.5-0.67-0.78-1.17-0.64c-0.03,0.01-0.67,0.2-1.74,0.54	c-0.05,0.02-0.08,0.05-0.12,0.07c-1.24-2.13-1.91-4.56-1.91-7.07c0-2.51,0.67-4.94,1.91-7.07c0.04,0.02,0.08,0.05,0.12,0.07	c1.07,0.34,1.71,0.53,1.74,0.54c0.09,0.03,0.18,0.04,0.26,0.04c0.41,0,0.78-0.27,0.9-0.67c0.15-0.5-0.14-1.02-0.64-1.17	c-0.01,0-0.5-0.15-1.32-0.41c0.23-0.29,0.46-0.58,0.71-0.85c2.04-2.23,4.72-3.74,7.65-4.32c-0.12,0.58-0.18,1.18-0.18,1.8	c0,0.52,0.42,0.94,0.94,0.94c0.52,0,0.94-0.42,0.94-0.94c0-0.9,0.17-1.76,0.48-2.55c0.01-0.01,0.01-0.03,0.02-0.04l0,0	c1.04-2.63,3.6-4.49,6.59-4.49c1.68,0,3.3,0.6,4.58,1.68c0.4,0.34,0.99,0.29,1.32-0.11c0.34-0.4,0.29-0.99-0.11-1.32	c-0.57-0.48-1.19-0.89-1.85-1.21c1.75-1.33,3.86-2.05,6.09-2.05c5.57,0,10.1,4.53,10.1,10.1c0,0.89-0.13,1.79-0.38,2.7	c-0.01,0.03-0.37,1.35-1.2,2.72c-0.27,0.44-0.15,1.02,0.29,1.3c0.16,0.1,0.33,0.15,0.5,0.15c0.31,0,0.61-0.15,0.79-0.43	c0.45-0.71,0.82-1.45,1.11-2.23c8.38,3.34,19.58,5.72,19.69,5.75c0.51,0.11,1.01-0.22,1.11-0.72c0.11-0.51-0.22-1.01-0.72-1.11	c-0.12-0.02-11.33-2.41-19.57-5.73c0.16-0.8,0.25-1.6,0.25-2.38c0-0.23-0.01-0.45-0.02-0.68c3.21,1.8,7.2,3.38,10.19,4.46	c0.11,0.04,0.21,0.06,0.32,0.06c0.38,0,0.75-0.24,0.88-0.62c0.18-0.49-0.08-1.03-0.57-1.2c-3.35-1.21-7.98-3.06-11.21-5.11	c-1.37-5.11-6.03-8.89-11.57-8.89c-3.06,0-5.93,1.14-8.15,3.21c-0.61-0.13-1.24-0.2-1.88-0.2c-3.58,0-6.68,2.11-8.11,5.16	c-3.72,0.49-7.15,2.27-9.71,5.06c-2.7,2.95-4.19,6.78-4.19,10.78c0,4,1.49,7.83,4.19,10.78c2.55,2.79,5.98,4.58,9.71,5.06	c1.43,3.04,4.53,5.16,8.11,5.16c0.64,0,1.27-0.07,1.88-0.2c2.22,2.07,5.1,3.21,8.15,3.21c5.54,0,10.2-3.78,11.57-8.89	c3.24-2.04,7.86-3.9,11.21-5.11c0.49-0.18,0.74-0.71,0.57-1.2c-0.18-0.49-0.71-0.74-1.2-0.57c-2.99,1.08-6.98,2.66-10.19,4.46	c0.01-0.22,0.02-0.45,0.02-0.68c0-0.79-0.08-1.59-0.25-2.38c8.23-3.32,19.45-5.7,19.57-5.73C65.51,28.51,65.83,28.01,65.72,27.5z" class="st0"/></svg>