<?xml version="1.0" encoding="utf-8"?>
<!-- Generator: Adobe Illustrator 24.1.1, SVG Export Plug-In . SVG Version: 6.00 Build 0)  -->
<svg version="1.1" id="Layer_1" xmlns="http://www.w3.org/2000/svg" xmlns:xlink="http://www.w3.org/1999/xlink" x="0px" y="0px"
	 viewBox="0 0 94 65" style="enable-background:new 0 0 94 65;" xml:space="preserve">
<style type="text/css">
	.st0{fill:#FFFFFF;}
</style>
<g>
	<g>
		<g>
			<path class="st0" d="M90.95,29.14l-2.98-2.98c-0.28-0.28-0.66-0.44-1.05-0.44h-4.47c-0.82,0-1.49,0.67-1.49,1.49v7.45h-2.98
				V24.24c0-0.82-0.67-1.49-1.49-1.49h-9.63l-5.51-8.27c-0.28-0.42-0.74-0.66-1.24-0.66h-8.94v-2.98H61.6
				c0.82,0,1.49-0.67,1.49-1.49V3.38c0-0.82-0.67-1.49-1.49-1.49H31.81c-0.82,0-1.49,0.67-1.49,1.49v5.96
				c0,0.82,0.67,1.49,1.49,1.49h10.43v2.98H33.3c-0.5,0-0.96,0.25-1.24,0.66l-5.52,8.27h-8.14c-0.82,0-1.49,0.67-1.49,1.49v8.94
				h-2.98v-8.94c0-0.82-0.67-1.49-1.49-1.49H6.49c-0.5,0-0.96,0.25-1.24,0.66l-2.98,4.47c-0.16,0.25-0.25,0.53-0.25,0.83v4.47
				c0,0.29,0.09,0.58,0.25,0.83L5,38.09v12.96c0,0.82,0.67,1.49,1.49,1.49h5.96c0.82,0,1.49-0.67,1.49-1.49v-8.94h2.98v8.94
				c0,0.82,0.67,1.49,1.49,1.49h8.14l5.51,8.27c0.28,0.42,0.74,0.66,1.24,0.66h43.19c0.82,0,1.49-0.67,1.49-1.49v-13.4h2.98V57
				c0,0.82,0.67,1.49,1.49,1.49h4.47c0.4,0,0.77-0.16,1.05-0.44l2.98-2.98c0.28-0.28,0.44-0.66,0.44-1.05V30.19
				C91.39,29.8,91.23,29.42,90.95,29.14z M10.96,34.66v14.89H7.98V37.64c0-0.29-0.09-0.58-0.25-0.83L5,32.73v-3.57l2.29-3.43h3.67
				V34.66z M16.92,39.13h-2.98v-2.98h2.98V39.13z M33.3,7.85V4.87h26.81v2.98H33.3z M48.19,10.83v2.98h-2.98v-2.98H48.19z
				 M69.05,58.49H34.1l-5.51-8.27c-0.28-0.42-0.74-0.66-1.24-0.66H19.9V25.73h7.45c0.5,0,0.96-0.25,1.24-0.66l5.52-8.27h25.22
				l5.51,8.27c0.28,0.42,0.74,0.66,1.24,0.66h2.98V58.49z M75,36.15v22.34h-2.98V25.73H75V36.15z M80.96,43.6h-2.98v-5.96h2.98V43.6
				z M88.41,53.41l-2.11,2.11h-2.36V28.7h2.36l2.11,2.11V53.41z"/>
		</g>
	</g>
	<g>
		<g>
			<path class="st0" d="M59.72,35.14c-0.28-0.31-0.68-0.48-1.1-0.48h-7.08l2.58-11.59c0.18-0.8-0.33-1.6-1.13-1.78
				c-0.47-0.11-0.97,0.03-1.33,0.36L33.78,38.03c-0.61,0.56-0.65,1.5-0.09,2.1c0.28,0.31,0.68,0.48,1.1,0.48h7.08l-2.58,11.59
				c-0.18,0.8,0.33,1.6,1.13,1.78c0.47,0.11,0.97-0.03,1.33-0.36l17.87-16.38C60.23,36.69,60.27,35.75,59.72,35.14z M43.23,48.24
				l1.95-8.79c0.18-0.8-0.33-1.6-1.13-1.78c-0.11-0.02-0.21-0.04-0.32-0.04h-5.11l11.56-10.6l-1.95,8.79
				c-0.18,0.8,0.33,1.6,1.13,1.78c0.11,0.02,0.21,0.04,0.32,0.04h5.11L43.23,48.24z"/>
		</g>
	</g>
	<g>
		<g>
			<rect x="22.87" y="34.66" class="st0" width="2.98" height="11.92"/>
		</g>
	</g>
	<g>
		<g>
			<rect x="22.87" y="28.7" class="st0" width="2.98" height="2.98"/>
		</g>
	</g>
</g>
</svg>
