<?xml version="1.0" encoding="utf-8"?>
<!-- Generator: Adobe Illustrator 24.1.1, SVG Export Plug-In . SVG Version: 6.00 Build 0)  -->
<svg version="1.1" id="Layer_1" xmlns="http://www.w3.org/2000/svg" xmlns:xlink="http://www.w3.org/1999/xlink" x="0px" y="0px"
	 viewBox="0 0 50 38" style="enable-background:new 0 0 50 38;" xml:space="preserve">
<style type="text/css">
	.st0{fill:#FFFFFF;}
</style>
<g>
	<path class="st0" d="M20.54,13.33c1.4-0.01,2.55,1.12,2.56,2.52c0.01,1.4-1.12,2.56-2.52,2.57c-1.4,0.01-2.55-1.12-2.56-2.52
		C18.01,14.49,19.14,13.34,20.54,13.33z"/>
	<path class="st0" d="M24.36,10.79c0.68,0,1.25,0.56,1.27,1.23c0.02,0.7-0.56,1.3-1.26,1.3c-0.7,0-1.28-0.6-1.27-1.3
		C23.11,11.35,23.68,10.79,24.36,10.79z"/>
	<path class="st0" d="M28.86,24.93c0.68,0,1.25,0.56,1.27,1.23c0.02,0.7-0.56,1.3-1.26,1.3c-0.7,0-1.28-0.6-1.27-1.3
		C27.61,25.49,28.18,24.93,28.86,24.93z"/>
	<path class="st0" d="M48.94,8.06c-0.22-1.16-1.01-2.18-2.17-2.8c-2.02-1.07-4.94-0.95-8.68,0.34C34.9,2.75,30.69,1,26.09,1
		C16.2,1,8.15,9.05,8.15,18.94c0,1.56,1.27,2.83,2.83,2.83s2.83-1.27,2.83-2.83c0-6.77,5.51-12.28,12.28-12.28
		c5.6,0,10.34,3.77,11.8,8.91c-2.93,1.62-6.69,3.31-11.31,4.86c-5.81,1.96-11.46,3.17-15.91,3.42c-4.87,0.27-6.23-0.73-6.32-1.02
		C4.3,22.68,4.41,22,5.57,20.8c0.63-0.66,0.61-1.7-0.05-2.33s-1.7-0.61-2.33,0.05c-1.86,1.93-2.52,3.74-1.97,5.38
		c0.74,2.2,3.38,3.31,7.87,3.31c0.56,0,1.15-0.02,1.77-0.05c4.74-0.27,10.7-1.54,16.78-3.59c3.7-1.24,7.43-2.8,10.72-4.52
		c-0.06,6.72-5.54,12.17-12.28,12.17c-2.77,0-5.38-0.9-7.55-2.6c-1.23-0.96-3.01-0.74-3.97,0.49c-0.96,1.23-0.74,3.01,0.49,3.97
		c3.18,2.48,7,3.8,11.04,3.8c9.89,0,17.94-8.05,17.94-17.94c0-1.08-0.1-2.14-0.29-3.16C47.26,13.23,49.4,10.53,48.94,8.06z
		 M42.78,12.39c-0.58-1.46-1.34-2.83-2.26-4.08c2.97-0.8,4.29-0.34,4.69-0.13c0.4,0.21,0.47,0.43,0.48,0.5
		C45.83,9.39,44.86,10.74,42.78,12.39z"/>
</g>
</svg>
