<svg xmlns="http://www.w3.org/2000/svg" xmlns:xlink="http://www.w3.org/1999/xlink" id="Layer_1" x="0" y="0" version="1.1" viewBox="0 0 50 50" xml:space="preserve" style="enable-background:new 0 0 50 50"><style type="text/css">.st0{fill:#fff}</style><g><g><g><path d="M41.98,48.18l5.28-5.28c0.63-0.63,0.63-1.79,0-2.43L35.49,28.66c-0.69-0.69-1.79-0.69-2.43,0l-1.95,1.95 l-1.16-1.16l6.6-6.65c0.69-0.69,0.74-1.95,0.05-2.64c0.05,0,0.05,0,0.11,0c1.79,0,3.48-0.69,4.8-2.01c0.37-0.37,0.37-1,0-1.37 l-3.43-3.43l0.11-0.11c1.06,0.47,2.32,0.32,3.17-0.53c1.06-1.06,1.06-2.9,0-4.01c-1.11-1.11-2.9-1.11-4.01,0 c-0.53,0.53-0.84,1.27-0.84,2.01c0,0.42,0.11,0.84,0.26,1.21l-0.11,0.11l-3.38-3.43c-0.16-0.16-0.42-0.26-0.69-0.26 c-0.26,0-0.47,0.11-0.69,0.26c-1.27,1.27-2.01,2.96-2.01,4.8c0,0.05,0,0.05,0,0.11c-0.74-0.69-1.95-0.69-2.64,0.05l-6.65,6.65 l-1.16-1.16l1.95-2.01c0.63-0.63,0.63-1.79,0-2.43l-3.54-3.54l-1.48-1.48L9.64,2.8c-0.69-0.69-1.79-0.69-2.43,0L1.93,8.08 C1.62,8.4,1.41,8.82,1.41,9.29c0,0.47,0.16,0.9,0.53,1.21l3.11,3.11l2.64,2.64l6.02,6.07c0.32,0.32,0.74,0.53,1.21,0.53 c0.47,0,0.9-0.16,1.21-0.53l1.95-1.95l1.16,1.16l-6.65,6.65c-0.37,0.37-0.58,0.84-0.58,1.37c0,0.53,0.21,1,0.58,1.37l6.54,6.54 c0.74,0.74,1.95,0.74,2.69,0l6.7-6.65l1.16,1.16l-1.95,1.95c-0.32,0.32-0.53,0.74-0.53,1.21c0,0.47,0.16,0.9,0.53,1.21l6.28,6.28 l2.43,2.43l3.11,3.11c0.32,0.32,0.74,0.53,1.21,0.53C41.25,48.71,41.67,48.55,41.98,48.18z M38.71,11.35 c-0.37-0.32-0.37-0.9,0-1.27c0.37-0.37,0.9-0.37,1.27,0c0.16,0.16,0.26,0.42,0.26,0.63c0,0.21-0.11,0.47-0.26,0.63 C39.61,11.72,39.08,11.72,38.71,11.35z M31.85,13.41c0-0.95,0.26-1.9,0.79-2.69l6.7,6.7c-0.79,0.53-1.69,0.79-2.69,0.79 c-1.32,0-2.53-0.53-3.43-1.42C32.33,15.89,31.85,14.68,31.85,13.41z M28.58,14.89l6.6,6.54l-1.85,1.85l-6.6-6.54L28.58,14.89z M3.36,9.29l5.01-5.01l1.74,1.74L5.1,11.03L3.36,9.29z M6.47,12.35l5.01-5.01l4.96,4.96l-5.01,5.01L6.47,12.35z M14.91,20.85 l-2.16-2.16l5.01-5.01l2.16,2.16L14.91,20.85z M20.51,36.1l-6.54-6.54l11.45-11.45l6.54,6.54L20.51,36.1z M29.21,35.15l5.01-5.01 l2.16,2.16l-5.01,5.01L29.21,35.15z M32.75,38.69l5.01-5.01l3.43,3.43l1.53,1.48l-5.01,5.01L32.75,38.69z M39.03,44.96l5.01-5.01 l1.74,1.74l-5.01,5.01L39.03,44.96z" class="st0"/><path d="M40.77,49c-0.52,0-1.02-0.22-1.42-0.61L27.53,36.57c-0.39-0.34-0.61-0.83-0.61-1.42 c0-0.52,0.22-1.02,0.61-1.42l1.75-1.75l-0.75-0.75l-6.5,6.45c-0.85,0.85-2.24,0.85-3.1,0l-6.54-6.54 c-0.43-0.44-0.66-0.98-0.66-1.58s0.23-1.14,0.66-1.58l6.45-6.45l-0.75-0.75l-1.75,1.75c-0.34,0.39-0.83,0.61-1.42,0.61 c-0.52,0-1.02-0.22-1.42-0.61L1.73,10.71c-0.39-0.34-0.61-0.83-0.61-1.42c0-0.52,0.22-1.02,0.61-1.42L7.01,2.6 C7.35,2.23,7.83,2.01,8.36,2c0.54-0.01,1.09,0.21,1.48,0.6l11.77,11.82c0.74,0.74,0.74,2.09,0,2.84l-1.75,1.8l0.76,0.76 l6.44-6.45c0.65-0.7,1.72-0.83,2.57-0.39c0.11-1.72,0.83-3.33,2.08-4.57c0.23-0.18,0.51-0.35,0.89-0.35 c0.33,0,0.68,0.13,0.89,0.35l2.77,2.81c-0.03-0.17-0.04-0.33-0.04-0.5c0-0.81,0.34-1.62,0.93-2.21c0.59-0.59,1.37-0.92,2.21-0.92 c0.83,0,1.62,0.33,2.21,0.92c1.17,1.23,1.17,3.25,0,4.42c-0.7,0.7-1.69,1-2.66,0.84l2.82,2.82c0.48,0.48,0.48,1.3,0,1.78 c-1.24,1.24-2.85,1.97-4.56,2.08c0.41,0.81,0.27,1.9-0.4,2.57l-6.39,6.44l0.75,0.75l1.75-1.75c0.34-0.37,0.83-0.59,1.36-0.6 c0.52-0.01,1.09,0.21,1.48,0.6l11.77,11.82c0.74,0.74,0.74,2.09,0,2.83l-5.27,5.27C41.84,48.79,41.35,49,40.77,49z M28.53,30.42 l1.57,1.57l-2.16,2.16c-0.29,0.29-0.44,0.64-0.44,1.01c0,0.42,0.14,0.75,0.43,0.99l11.84,11.84c0.29,0.29,0.64,0.44,1.01,0.44 c0.42,0,0.75-0.14,0.99-0.43l0.02-0.02l5.28-5.28c0.52-0.52,0.52-1.5,0-2.02L35.29,28.86c-0.28-0.28-0.64-0.43-1.06-0.43 c-0.37,0.01-0.71,0.16-0.95,0.42l-2.16,2.16l-1.57-1.57l6.8-6.85c0.59-0.59,0.61-1.67,0.05-2.23l-0.49-0.49h0.8 c1.75,0,3.34-0.66,4.6-1.92c0.26-0.26,0.26-0.71,0-0.96l-3.63-3.63l0.45-0.45l0.18,0.08c1,0.45,2.11,0.26,2.84-0.47 c0.95-0.95,0.95-2.6-0.01-3.61c-0.48-0.48-1.12-0.74-1.8-0.74c-0.68,0-1.32,0.27-1.8,0.75c-0.48,0.48-0.76,1.15-0.76,1.8 c0,0.35,0.08,0.73,0.24,1.1L37.1,12l-0.45,0.45l-3.58-3.64c-0.11-0.11-0.3-0.18-0.48-0.18c-0.17,0-0.32,0.06-0.51,0.21 c-1.21,1.21-1.89,2.84-1.89,4.57v0.77l-0.48-0.45c-0.64-0.59-1.66-0.58-2.23,0.04l-6.86,6.86l-1.57-1.57l2.15-2.21 c0.52-0.52,0.52-1.5,0-2.02l-5.01-5.01L9.43,3.01C9.15,2.73,8.78,2.58,8.38,2.58C8,2.58,7.67,2.73,7.42,3L2.14,8.28 C1.85,8.57,1.69,8.93,1.69,9.29c0,0.42,0.14,0.75,0.43,0.99l5.77,5.77l6.02,6.07c0.28,0.28,0.64,0.44,1.01,0.44 c0.42,0,0.75-0.14,1-0.43l2.17-2.17l1.57,1.57l-6.85,6.85c-0.32,0.32-0.5,0.73-0.5,1.17s0.17,0.84,0.5,1.17l6.54,6.54 c0.63,0.63,1.65,0.63,2.28,0L28.53,30.42z M40.77,47.11l-2.15-2.15l5.42-5.42l2.15,2.15L40.77,47.11z M39.44,44.96l1.33,1.33 l4.61-4.61l-1.33-1.33L39.44,44.96z M37.71,44l-5.37-5.31l5.42-5.42l3.63,3.63l1.74,1.68L37.71,44z M33.16,38.68l4.55,4.5 l4.6-4.6l-1.32-1.27l-3.23-3.23L33.16,38.68z M31.38,37.72l-2.57-2.57l5.42-5.42l2.57,2.57L31.38,37.72z M29.62,35.15l1.76,1.76 l4.61-4.61l-1.76-1.76L29.62,35.15z M20.51,36.51l-6.95-6.95L25.42,17.7l6.95,6.95L20.51,36.51z M14.37,29.56l6.14,6.14 l11.04-11.04l-6.14-6.14L14.37,29.56z M33.33,23.68l-7.01-6.95l2.26-2.25l7,6.95L33.33,23.68z M27.14,16.73l6.19,6.14l1.44-1.44 l-6.19-6.14L27.14,16.73z M14.91,21.26l-2.57-2.57l5.42-5.42l2.57,2.57L14.91,21.26z M13.16,18.69l1.76,1.76l4.61-4.61 l-1.76-1.76L13.16,18.69z M36.65,18.5c-1.37,0-2.66-0.54-3.63-1.51c-0.94-0.94-1.46-2.21-1.46-3.58c0-1.03,0.3-2.04,0.84-2.85 l0.19-0.29l7.2,7.2l-0.29,0.2C38.67,18.22,37.71,18.5,36.65,18.5z M32.7,11.18c-0.36,0.66-0.56,1.44-0.56,2.23 c0,1.22,0.46,2.34,1.29,3.17c0.86,0.86,2.01,1.34,3.23,1.34c0.81,0,1.56-0.19,2.23-0.56L32.7,11.18z M11.43,17.72l-5.37-5.37 l5.42-5.42l5.37,5.37L11.43,17.72z M6.88,12.35l4.55,4.55l4.61-4.61l-4.55-4.55L6.88,12.35z M39.35,11.92 c-0.3,0-0.6-0.13-0.83-0.35c-0.23-0.2-0.36-0.47-0.37-0.78c-0.01-0.33,0.12-0.66,0.36-0.9c0.49-0.48,1.19-0.48,1.67,0 c0.21,0.21,0.35,0.54,0.35,0.84c0,0.29-0.14,0.63-0.35,0.84C39.95,11.79,39.65,11.92,39.35,11.92z M39.35,10.1 c-0.15,0-0.3,0.06-0.43,0.19c-0.13,0.13-0.2,0.3-0.19,0.47c0.01,0.15,0.07,0.28,0.18,0.37l0.02,0.01c0.25,0.25,0.61,0.25,0.86,0 c0.1-0.1,0.18-0.29,0.18-0.43s-0.08-0.33-0.18-0.43C39.65,10.16,39.5,10.1,39.35,10.1z M5.1,11.44L2.95,9.29l5.42-5.42l2.15,2.15 L5.1,11.44z M3.77,9.29l1.33,1.33L9.7,6.02L8.37,4.69L3.77,9.29z" class="st0"/></g></g></g></svg>